<?xml version="1.0" encoding="utf-8"?>
<!DOCTYPE svg PUBLIC "-//W3C//DTD SVG 1.1//EN" "http://www.w3.org/Graphics/SVG/1.1/DTD/svg11.dtd">
<svg version="1.1" id="Ebene_2" xmlns="http://www.w3.org/2000/svg" xmlns:xlink="http://www.w3.org/1999/xlink" x="0px" y="0px"
	 width="570px" height="400px" viewBox="-135 0 570 400" enable-background="new -135 0 570 400" xml:space="preserve">
<path fill="#718CA5" d="M117.613,44.552C128.054,41.258,138.149,40,149.5,40V0c-16.336,0-30.942,2.177-45.549,6.947L117.613,44.552z
	"/>
<path fill="#60BBAF" d="M71.377,227.315c-12.438-12.438-20.535-26.556-25.831-42.81C42.076,173.719,40,161.656,40,149.999
	c0-23.518,6.979-45.41,20.559-64.065L28.235,62.396C10.23,87.144,0,117.054,0,149.999c0,16.307,2.7,31.981,7.512,46.68
	c9.902,30.475,27.863,55.491,53.26,73.918l23.064-32.529C79.127,234.652,75.57,231.509,71.377,227.315z"/>
<path fill="#6A9FA8" d="M61.207,85.029c3.387-4.651,6.865-8.665,11.012-12.812c12.75-12.75,27.89-21.984,44.476-27.216
	L102.915,7.338c-29.959,9.784-55.568,28.83-73.904,53.979L61.207,85.029z"/>
<path fill="#82D5CA" d="M285.542,85.665c-10.815-22.946-27.526-42.588-47.844-57.371C212.961,10.312,183.422-0.001,150.5-0.001v40
	c23.564,0,45.093,7.065,63.77,20.698c4.617,3.368,9.395,7.401,13.513,11.521c9.133,9.133,16.297,19.238,21.643,30.585
	C256.21,117.241,260,133.572,260,149.999c0,23.405-7.56,46.106-21.016,64.706c-3.438,4.756-6.973,8.846-11.203,13.075
	c-20.362,20.363-47.305,31.761-76.031,32.205L150.5,260c-22.945-0.355-47.524-7.943-65.748-21.262l-23.153,32.463
	c24.718,17.934,56.027,28.797,88.901,28.797c50.074,0,93.619-24.125,120.864-61.832c0.196-0.27,0.556-0.766,0.751-1.037
	C289.67,212.566,300,182.49,300,149.999C300,127.152,294.678,105.047,285.542,85.665z"/>
<rect x="-60" y="380" fill="#6A9FA8" width="20" height="20"/>
<rect x="-60" y="350" fill="#82D5CA" width="20" height="20"/>
<rect x="177" y="350" fill="#60BBAF" width="20" height="20"/>
<rect x="177" y="379.64" fill="#718CA5" width="20" height="20"/>
<text transform="matrix(1 0 0 1 -30 364.9995)" fill="#999999" font-family="'OpenSans'" font-size="14">Excellent</text>
<text transform="matrix(1 0 0 1 -29.8643 395.314)" fill="#999999" font-family="'OpenSans'" font-size="14">Good</text>
<text transform="matrix(1 0 0 1 207.1357 394.2788)" fill="#999999" font-family="'OpenSans'" font-size="14">Average</text>
<text transform="matrix(1 0 0 1 206.9316 364.9995)" fill="#999999" font-family="'OpenSans'" font-size="14">Exceeds expectations</text>
</svg>
