<?xml version="1.0" encoding="utf-8"?>
<!DOCTYPE svg PUBLIC "-//W3C//DTD SVG 1.1//EN" "http://www.w3.org/Graphics/SVG/1.1/DTD/svg11.dtd">
<svg version="1.1" id="Ebene_1" xmlns="http://www.w3.org/2000/svg" xmlns:xlink="http://www.w3.org/1999/xlink" x="0px" y="0px"
	 width="200px" height="200px" viewBox="0 0 200 200" enable-background="new 0 0 200 200" xml:space="preserve">
<path opacity="0.4" d="M129.29,109.18l-15.04-2.27c-0.89-2.76-2.08-5.42-3.36-8.08c2.771-3.85,5.73-7.4,8.61-11.24
	c0.39-0.6,0.69-1.189,0.69-1.88c0-2.76-11.681-13.41-14.25-15.78c-0.601-0.49-1.29-0.79-2.08-0.79c-0.69,0-1.391,0.2-1.98,0.69
	L90.2,78.61c-2.37-1.18-4.85-2.27-7.42-3.06l-2.27-15.09c-0.2-1.38-1.59-2.46-2.97-2.46H59.13c-1.39,0-2.57,0.99-2.97,2.37
	c-1.28,4.83-1.78,10.25-2.27,15.18c-2.68,0.89-5.15,1.88-7.62,3.16l-11.38-8.88c-0.6-0.39-1.29-0.69-2.08-0.69
	c-2.87,0-13.96,11.94-15.93,14.6c-0.5,0.59-0.7,1.279-0.7,1.97s0.3,1.38,0.7,1.97c3.16,3.75,6.13,7.4,8.9,11.35
	c-1.29,2.461-2.37,4.931-3.17,7.49l-15.33,2.371C5.99,109.08,5,110.561,5,111.85v18.24c0,1.38,0.99,2.66,2.38,2.86l15.04,2.37
	c0.89,2.76,2.07,5.42,3.46,8.08c-2.87,3.85-5.84,7.5-8.71,11.25c-0.39,0.59-0.69,1.18-0.69,1.869c0,2.86,11.68,13.41,14.25,15.78
	c0.59,0.49,1.29,0.79,2.08,0.79c0.69,0,1.48-0.2,1.98-0.689l11.67-8.78c2.38,1.189,4.85,2.27,7.43,3.06l2.27,15.09
	c0.2,1.381,1.58,2.461,2.97,2.461h18.41c1.38,0,2.57-0.98,2.97-2.36c1.28-4.84,1.78-10.26,2.27-15.29
	c2.67-0.79,5.15-1.771,7.62-3.061l11.38,8.881c0.6,0.39,1.29,0.689,2.08,0.689c2.87,0,13.949-12.03,15.93-14.7
	c0.5-0.489,0.7-1.18,0.7-1.87c0-0.789-0.3-1.38-0.7-1.97c-3.17-3.75-6.13-7.399-8.9-11.34c1.28-2.47,2.37-4.93,3.16-7.5l15.34-2.36
	c1.29-0.199,2.28-1.68,2.28-2.959v-18.25C131.67,110.76,130.68,109.48,129.29,109.18z M68.33,146.36
	C54.38,146.36,43,135.02,43,121.12c0-13.91,11.38-25.25,25.33-25.25c13.96,0,25.34,11.34,25.34,25.25
	C93.67,135.02,82.29,146.36,68.33,146.36z"/>
<path opacity="0.4" d="M180.26,61.65c-0.8-1.78-1.79-3.551-2.97-5.131c0.89-1.97,5.04-11.829,5.04-13.609c0-0.2-0.1-0.49-0.39-0.69
	c-1.19-0.689-11.78-6.899-12.271-6.899l-0.6,0.189c-3.36,3.36-6.33,7.2-9.101,11.05c-0.989-0.1-1.979-0.199-2.97-0.199
	s-1.98,0.1-2.97,0.199c-0.99-1.479-8.41-11.239-9.7-11.239c-0.49,0-11.08,6.31-12.271,6.899c-0.29,0.2-0.39,0.49-0.39,0.69
	c0,1.68,4.15,11.64,5.04,13.609c-1.18,1.58-2.17,3.351-2.97,5.131C131.77,61.85,119,63.23,119,64.71v13.8
	c0,1.48,12.77,2.86,14.74,3.061c0.8,1.87,1.79,3.55,2.97,5.13c-0.89,1.97-5.04,11.93-5.04,13.609c0,0.19,0.1,0.49,0.39,0.69
	c1.19,0.69,11.78,7,12.271,7c1.29,0,8.71-9.86,9.7-11.34c0.989,0.1,1.979,0.2,2.97,0.2s1.98-0.101,2.97-0.2
	c0.99,1.479,8.41,11.34,9.7,11.34c0.49,0,11.08-6.31,12.271-7c0.29-0.2,0.39-0.4,0.39-0.69c0-1.779-4.15-11.64-5.04-13.609
	c1.18-1.58,2.17-3.26,2.97-5.13c1.971-0.2,14.74-1.58,14.74-3.061v-13.8C195,63.23,182.23,61.85,180.26,61.65z M157,84.23
	c-6.93,0-12.67-5.62-12.67-12.62c0-6.9,5.74-12.62,12.67-12.62s12.67,5.72,12.67,12.62C169.67,78.51,164.03,84.23,157,84.23z"/>
</svg>
