<?xml version="1.0" encoding="utf-8"?>
<!DOCTYPE svg PUBLIC "-//W3C//DTD SVG 1.1//EN" "http://www.w3.org/Graphics/SVG/1.1/DTD/svg11.dtd">
<svg version="1.1" id="Ebene_2" xmlns="http://www.w3.org/2000/svg" xmlns:xlink="http://www.w3.org/1999/xlink" x="0px" y="0px"
	 width="570px" height="400px" viewBox="90.5 175.5 570 400" enable-background="new 90.5 175.5 570 400" xml:space="preserve">
<g>
	<path fill="#6A9FA8" d="M375,215.5v-39.999c-50.074,0-93.619,24.126-120.863,61.832l32.379,23.461
		c3.438-4.755,6.974-8.845,11.203-13.075c20.362-20.363,47.305-31.76,76.031-32.205L375,215.5z"/>
	<path fill="#6D98A7" d="M463.9,204.3c-24.718-17.934-55.026-28.799-87.9-28.799V215.5c22.945,0.355,46.525,7.943,64.748,21.261
		c4.709,3.416,9.182,7.229,13.375,11.423c12.438,12.438,20.535,26.557,25.831,42.81l38.034-12.173
		C508.086,248.346,489.298,222.727,463.9,204.3z"/>
	<path fill="#718CA5" d="M480.312,291.945c3.47,10.785,5.188,21.897,5.188,33.555c0,23.518-7.039,45.507-20.619,64.162
		l32.197,23.712c18.005-24.747,28.422-54.929,28.422-87.874c0-16.307-2.286-31.029-7.098-45.729L480.312,291.945z"/>
	<path fill="#82D5CA" d="M464.293,390.471c-3.387,4.65-6.865,8.664-11.012,12.812C432.506,424.059,405.382,435.5,376,435.5v40
		c49.843,0,93.213-23.907,120.489-61.316L464.293,390.471z"/>
	<path fill="#60BBAF" d="M287.802,447.205C312.539,465.188,342.078,475.5,375,475.5v-40c-23.564,0-45.093-7.064-63.77-20.698
		L287.802,447.205z"/>
	<path fill="#66A8AB" d="M297.719,403.281c-9.133-9.133-16.71-20.134-22.056-31.481c-6.785-14.438-10.163-29.873-10.163-46.3
		c0-23.404,6.961-45.277,20.417-63.878L253.58,238.1c-0.196,0.27,0,0-0.195,0.271C235.83,262.934,225.5,293.01,225.5,325.5
		c0,22.848,4.902,44.044,14.038,63.426c10.815,22.945,27.135,42.956,47.453,57.739l23.227-32.45
		C305.602,410.848,301.837,407.4,297.719,403.281z"/>
</g>
<rect x="135.5" y="555.5" fill="#6D98A7" width="20" height="20"/>
<rect x="135.5" y="525.5" fill="#718CA5" width="20" height="20"/>
<rect x="499.5" y="555.5" fill="#82D5CA" width="20" height="20"/>
<rect x="499.5" y="525.5" fill="#60BBAF" width="20" height="20"/>
<rect x="322.5" y="525.5" fill="#66A8AB" width="20" height="20"/>
<rect x="322.5" y="555.14" fill="#6A9FA8" width="20" height="20"/>
<text transform="matrix(1 0 0 1 165.5 540.5)" fill="#999999" font-family="'OpenSans'" font-size="14">Gusto Ristorante</text>
<text transform="matrix(1 0 0 1 165.6357 570.8135)" fill="#999999" font-family="'OpenSans'" font-size="14">Sixth Avenue</text>
<text transform="matrix(1 0 0 1 352.6357 569.7793)" fill="#999999" font-family="'OpenSans'" font-size="14">Sun Magazine</text>
<text transform="matrix(1 0 0 1 352.4316 540.5)" fill="#999999" font-family="'OpenSans'" font-size="14">Lykka Interior</text>
<text transform="matrix(1 0 0 1 529.5674 540.8135)" fill="#999999" font-family="'OpenSans'" font-size="14">Helios App</text>
<text transform="matrix(1 0 0 1 529.5674 570.1396)" fill="#999999" font-family="'OpenSans'" font-size="14">Salt Store</text>
</svg>
