<?xml version="1.0" encoding="utf-8"?>
<!DOCTYPE svg PUBLIC "-//W3C//DTD SVG 1.1//EN" "http://www.w3.org/Graphics/SVG/1.1/DTD/svg11.dtd">
<svg version="1.1" id="stats1" xmlns="http://www.w3.org/2000/svg" xmlns:xlink="http://www.w3.org/1999/xlink" x="0px" y="0px"
	 width="1200px" height="400px" viewBox="0 0 1200 400" enable-background="new 0 0 1200 400" xml:space="preserve">
<path id="bar1" opacity="0.3" fill="#CCCCCC" enable-background="new    " d="M40.5,320.5h76v80h-76V320.5z"/>
<path id="bar2" opacity="0.3" fill="#CCCCCC" enable-background="new    " d="M120.5,280.5h76v120h-76V280.5z"/>
<path id="bar3" opacity="0.3" fill="#CCCCCC" enable-background="new    " d="M200.5,240.5h76v160h-76V240.5z"/>
<path id="bar4" opacity="0.3" fill="#CCCCCC" enable-background="new    " d="M280.5,190.5h76v210h-76V190.5z"/>
<path id="bar5" opacity="0.3" fill="#CCCCCC" enable-background="new    " d="M360.5,250.5h76v150h-76V250.5z"/>
<path id="bar6" opacity="0.3" fill="#CCCCCC" enable-background="new    " d="M440.5,110.5h76v290h-76V110.5z"/>
<path id="bar7" opacity="0.3" fill="#CCCCCC" enable-background="new    " d="M520.5,190.5h76v210h-76V190.5z"/>
<path id="bar8" opacity="0.3" fill="#CCCCCC" enable-background="new    " d="M600.5,150.5h76v250h-76V150.5z"/>
<path id="bar9" opacity="0.3" fill="#CCCCCC" enable-background="new    " d="M760.5,190.5h76v210h-76V190.5z"/>
<path id="bar10" opacity="0.3" fill="#CCCCCC" enable-background="new    " d="M840.5,150.5h76v250h-76V150.5z"/>
<path id="bar11" opacity="0.3" fill="#CCCCCC" enable-background="new    " d="M920.5,220.5h76v180h-76V220.5z"/>
<path id="bar12" opacity="0.3" fill="#CCCCCC" enable-background="new    " d="M1000.5,320.5h76v80h-76V320.5z"/>
<path id="bar13" opacity="0.3" fill="#CCCCCC" enable-background="new    " d="M1080.5,300.5h76v100h-76V300.5z"/>
<g>
	<path fill="#7489A4" d="M738.34,78.373c0.339-0.397,0.508-1.048,0.508-1.953c0-0.931-0.183-1.613-0.547-2.046
		c-0.359-0.433-0.815-0.649-1.367-0.649c-0.522,0-0.974,0.207-1.338,0.62c-0.361,0.413-0.547,1.024-0.547,1.831
		c0,0.892,0.205,1.581,0.615,2.065c0.41,0.484,0.879,0.728,1.406,0.728C737.578,78.969,738.001,78.77,738.34,78.373z"/>
	<path fill="#7489A4" d="M716.387,76.675c0-0.67-0.188-1.209-0.562-1.616c-0.377-0.407-0.855-0.61-1.438-0.61
		c-0.67,0-1.17,0.231-1.499,0.693s-0.491,0.962-0.491,1.503c0,0.755,0.191,1.344,0.579,1.768c0.393,0.424,0.87,0.635,1.45,0.635
		c0.566,0,1.035-0.204,1.406-0.61S716.387,77.443,716.387,76.675z"/>
	<path fill="#7489A4" d="M714.343,72.25c0.521,0,0.938-0.155,1.25-0.464c0.312-0.309,0.474-0.737,0.474-1.284
		c0-0.514-0.154-0.926-0.469-1.235c-0.31-0.309-0.718-0.464-1.226-0.464c-0.527,0-0.947,0.156-1.26,0.469
		c-0.313,0.313-0.466,0.726-0.466,1.24c0,0.547,0.149,0.973,0.464,1.279C713.42,72.097,713.832,72.25,714.343,72.25z"/>
	<path fill="#7489A4" d="M680.5,50.5v350h76v-350H680.5z M720.371,75.717l6.211-9.092h2.305v9.082h1.777v2.412h-1.777V81h-2.656
		v-2.881h-5.857L720.371,75.717L720.371,75.717z M704.624,69.393c-0.329-0.328-0.782-0.493-1.362-0.493
		c-0.57,0-1.024,0.172-1.367,0.518c-0.338,0.346-0.528,0.918-0.586,1.719l-2.729-0.273c0.162-1.51,0.674-2.594,1.533-3.252
		c0.854-0.658,1.934-0.986,3.223-0.986c1.412,0,2.521,0.381,3.33,1.143c0.807,0.762,1.211,1.709,1.211,2.842
		c0,0.645-0.115,1.258-0.347,1.841c-0.232,0.583-0.602,1.193-1.104,1.831c-0.332,0.423-0.932,1.032-1.797,1.826
		s-1.414,1.322-1.646,1.582c-0.232,0.26-0.419,0.514-0.562,0.762h5.45V81h-9.619c0.104-0.963,0.416-1.876,0.938-2.739
		c0.521-0.863,1.552-2.007,3.089-3.433c1.231-1.152,1.993-1.934,2.271-2.344c0.377-0.566,0.566-1.126,0.566-1.68
		C705.117,70.192,704.953,69.721,704.624,69.393z M703.177,97h-2.16l-3.581-10.021h2.193l2.536,7.417l2.454-7.417h2.146L703.177,97z
		 M709.757,97h-2.021V86.979h2.021V97z M709.688,76.908c0-0.775,0.189-1.486,0.574-2.134c0.39-0.648,0.992-1.147,1.818-1.499
		c-0.709-0.299-1.229-0.711-1.548-1.235c-0.322-0.524-0.483-1.099-0.483-1.724c0-1.068,0.373-1.95,1.118-2.646
		c0.745-0.696,1.806-1.045,3.179-1.045c1.361,0,2.417,0.348,3.169,1.045c0.753,0.697,1.128,1.579,1.128,2.646
		c0,0.664-0.172,1.255-0.518,1.772s-0.83,0.913-1.455,1.187c0.795,0.319,1.398,0.785,1.812,1.396
		c0.414,0.611,0.617,1.318,0.617,2.119c0,1.322-0.424,2.396-1.267,3.223c-0.843,0.827-1.964,1.24-3.364,1.24
		c-1.303,0-2.387-0.342-3.252-1.025C710.198,79.421,709.688,78.314,709.688,76.908z M719.314,97h-7.627V86.979h7.434v1.695h-5.407
		v2.222h5.031v1.688h-5.031v2.728h5.603L719.314,97L719.314,97z M730.773,97h-2.146l-1.996-7.492L724.642,97h-2.192l-2.396-10.021
		h2.071l1.511,6.884l1.832-6.884h2.406l1.757,7l1.538-7h2.037L730.773,97z M731.977,74.036c0-2.624,0.485-4.515,1.455-5.674
		c0.975-1.159,2.229-1.738,3.779-1.738c1.087,0,1.987,0.304,2.7,0.913s1.163,1.494,1.356,2.652l-2.651,0.293
		c-0.065-0.547-0.234-0.951-0.508-1.211c-0.274-0.26-0.632-0.391-1.064-0.391c-0.579,0-1.069,0.26-1.47,0.781
		c-0.401,0.521-0.652,1.605-0.757,3.252c0.684-0.807,1.528-1.211,2.549-1.211c1.146,0,2.127,0.436,2.939,1.309
		c0.817,0.873,1.229,1.999,1.229,3.379c0,1.465-0.434,2.64-1.289,3.525c-0.859,0.885-1.963,1.328-3.312,1.328
		c-1.441,0-2.635-0.562-3.562-1.685C732.441,78.435,731.977,76.594,731.977,74.036z M741.402,95.693
		c-0.32,0.501-0.771,0.874-1.354,1.118c-0.583,0.243-1.311,0.365-2.181,0.365c-1.271,0-2.24-0.293-2.919-0.879
		c-0.686-0.583-1.091-1.437-1.224-2.558l1.974-0.191c0.116,0.661,0.354,1.146,0.721,1.456s0.853,0.465,1.467,0.465
		c0.651,0,1.146-0.138,1.478-0.414c0.33-0.275,0.492-0.598,0.492-0.967c0-0.237-0.065-0.438-0.209-0.605
		c-0.14-0.166-0.382-0.311-0.729-0.434c-0.237-0.082-0.777-0.228-1.62-0.438c-1.085-0.269-1.846-0.6-2.283-0.991
		c-0.61-0.552-0.923-1.224-0.923-2.017c0-0.511,0.146-0.988,0.438-1.432c0.289-0.445,0.705-0.783,1.25-1.016
		c0.545-0.232,1.197-0.349,1.973-0.349c1.258,0,2.205,0.275,2.84,0.827c0.64,0.552,0.972,1.287,1.002,2.208l-2.021,0.089
		c-0.087-0.515-0.272-0.885-0.562-1.111c-0.282-0.225-0.713-0.338-1.277-0.338c-0.592,0-1.053,0.121-1.385,0.362
		c-0.215,0.155-0.317,0.362-0.317,0.622c0,0.237,0.101,0.439,0.301,0.608c0.255,0.214,0.875,0.438,1.859,0.67
		c0.979,0.232,1.713,0.473,2.184,0.722c0.475,0.248,0.842,0.588,1.107,1.018c0.268,0.432,0.396,0.963,0.396,1.597
		C741.881,94.654,741.722,95.192,741.402,95.693z"/>
	<polygon fill="#7489A4" points="726.23,70.814 722.939,75.707 726.23,75.707 	"/>
</g>
</svg>
