<?xml version="1.0" encoding="utf-8"?>
<!DOCTYPE svg PUBLIC "-//W3C//DTD SVG 1.1//EN" "http://www.w3.org/Graphics/SVG/1.1/DTD/svg11.dtd">
<svg version="1.1" id="stats2" xmlns="http://www.w3.org/2000/svg" xmlns:xlink="http://www.w3.org/1999/xlink" x="0px" y="0px"
	 width="1200px" height="400px" viewBox="0 0 1200 400" enable-background="new 0 0 1200 400" xml:space="preserve">
<g id="line1" opacity="0.2" enable-background="new    ">
	<g>
		<line fill="none" stroke="#CCCCCC" stroke-width="2" stroke-miterlimit="10" x1="36" y1="135.5" x2="38.5" y2="135.5"/>

			<line fill="none" stroke="#CCCCCC" stroke-width="2" stroke-miterlimit="10" stroke-dasharray="5.018,4.0144" x1="42.515" y1="135.5" x2="1151.493" y2="135.5"/>
		<line fill="none" stroke="#CCCCCC" stroke-width="2" stroke-miterlimit="10" x1="1153.5" y1="135.5" x2="1156" y2="135.5"/>
	</g>
</g>
<g id="line2" opacity="0.2" enable-background="new    ">
	<g>
		<line fill="none" stroke="#CCCCCC" stroke-width="2" stroke-miterlimit="10" x1="36" y1="235.5" x2="38.5" y2="235.5"/>

			<line fill="none" stroke="#CCCCCC" stroke-width="2" stroke-miterlimit="10" stroke-dasharray="5.018,4.0144" x1="42.515" y1="235.5" x2="1151.493" y2="235.5"/>
		<line fill="none" stroke="#CCCCCC" stroke-width="2" stroke-miterlimit="10" x1="1153.5" y1="235.5" x2="1156" y2="235.5"/>
	</g>
</g>
<g id="line3" opacity="0.2" enable-background="new    ">
	<g>
		<line fill="none" stroke="#CCCCCC" stroke-width="2" stroke-miterlimit="10" x1="36" y1="345.5" x2="38.5" y2="345.5"/>

			<line fill="none" stroke="#CCCCCC" stroke-width="2" stroke-miterlimit="10" stroke-dasharray="5.018,4.0144" x1="42.515" y1="345.5" x2="1151.493" y2="345.5"/>
		<line fill="none" stroke="#CCCCCC" stroke-width="2" stroke-miterlimit="10" x1="1153.5" y1="345.5" x2="1156" y2="345.5"/>
	</g>
</g>
<g>
	<path fill="#7489A4" d="M856.309,69.604c0.406,0,0.739-0.128,0.999-0.384c0.265-0.256,0.395-0.569,0.395-0.94
		c0-0.387-0.134-0.712-0.401-0.976c-0.267-0.264-0.601-0.396-0.999-0.396s-0.733,0.129-1.002,0.387
		c-0.27,0.258-0.403,0.567-0.403,0.926c0,0.406,0.135,0.738,0.396,0.996C855.551,69.475,855.891,69.604,856.309,69.604z"/>
	<path fill="#7489A4" d="M845.293,81.163c-0.938,0-1.754,0.383-2.449,1.148c-0.69,0.765-1.043,1.758-1.043,2.977
		c0,1.094,0.33,1.982,0.99,2.666s1.475,1.025,2.443,1.025c0.977,0,1.774-0.342,2.403-1.025c0.634-0.683,0.946-1.631,0.946-2.842
		c0-1.211-0.322-2.172-0.967-2.883S846.199,81.163,845.293,81.163z"/>
	<path fill="#7489A4" d="M855.406,73.714c0.277,0.154,0.584,0.231,0.908,0.231c0.504,0,0.92-0.162,1.244-0.486
		c0.327-0.324,0.491-0.736,0.491-1.236c0-0.508-0.169-0.928-0.507-1.26s-0.761-0.498-1.269-0.498c-0.496,0-0.907,0.164-1.233,0.492
		s-0.489,0.739-0.489,1.231c0,0.301,0.071,0.592,0.214,0.873C854.913,73.342,855.122,73.56,855.406,73.714z"/>
	<path fill="#7489A4" d="M898.291,66.915c-0.484,0-0.871,0.205-1.16,0.615c-0.366,0.523-0.548,1.49-0.548,2.9
		c0,1.41,0.165,2.349,0.495,2.815c0.33,0.466,0.737,0.7,1.222,0.7c0.485,0,0.896-0.234,1.224-0.703
		c0.328-0.469,0.494-1.406,0.494-2.812c0-1.414-0.165-2.354-0.494-2.818C899.194,67.148,898.783,66.915,898.291,66.915z"/>
	<path fill="#7489A4" d="M933.5,50.771h-106c-1.104,0-2,0.896-2,2v56c0,1.104,0.896,2,2,2h42.443l9.143,9.143
		c0.781,0.781,2.047,0.781,2.828,0l9.143-9.143H933.5c1.104,0,2-0.896,2-2v-56C935.5,51.667,934.604,50.771,933.5,50.771z
		 M908.501,71.643l3.92-5.566h0.861v5.566h1.16v0.967h-1.16v2.057h-1.056V72.61H908.5L908.501,71.643L908.501,71.643z
		 M888.812,73.935c0.146-0.387,0.377-0.768,0.69-1.143c0.318-0.375,0.778-0.809,1.38-1.301c0.938-0.766,1.564-1.372,1.896-1.819
		c0.329-0.447,0.49-0.87,0.49-1.269c0-0.418-0.147-0.771-0.446-1.058c-0.299-0.287-0.688-0.431-1.169-0.431
		c-0.51,0-0.914,0.152-1.224,0.457c-0.305,0.305-0.459,0.727-0.463,1.266l-1.084-0.111c0.074-0.809,0.354-1.425,0.838-1.849
		c0.484-0.424,1.14-0.636,1.951-0.636c0.824,0,1.479,0.229,1.957,0.686c0.48,0.457,0.724,1.023,0.724,1.699
		c0,0.344-0.068,0.682-0.214,1.014c-0.141,0.332-0.374,0.682-0.695,1.049c-0.326,0.367-0.868,0.871-1.626,1.512
		c-0.635,0.531-1.039,0.892-1.224,1.081c-0.18,0.189-0.325,0.38-0.44,0.571h4.213v1.014h-5.678
		C888.68,74.413,888.721,74.169,888.812,73.935z M868.051,67.134c0.77-0.807,1.754-1.21,2.965-1.21c0.795,0,1.513,0.189,2.146,0.568
		c0.637,0.379,1.122,0.907,1.456,1.585c0.334,0.678,0.501,1.446,0.501,2.306c0,0.871-0.176,1.65-0.527,2.338
		c-0.351,0.688-0.85,1.208-1.494,1.562c-0.644,0.354-1.34,0.53-2.086,0.53c-0.809,0-1.526-0.195-2.168-0.586
		c-0.637-0.391-1.119-0.924-1.442-1.6c-0.329-0.676-0.494-1.39-0.494-2.144C866.905,69.057,867.288,67.941,868.051,67.134z
		 M860.747,73.466h1.201v1.201h-1.201V73.466z M854.131,69.322c-0.211-0.297-0.312-0.652-0.312-1.066
		c0-0.625,0.225-1.15,0.674-1.576c0.448-0.426,1.047-0.639,1.793-0.639c0.75,0,1.354,0.218,1.811,0.653s0.688,0.966,0.688,1.591
		c0,0.398-0.104,0.745-0.313,1.04c-0.209,0.295-0.521,0.522-0.952,0.683c0.527,0.172,0.934,0.449,1.204,0.832
		c0.275,0.383,0.413,0.84,0.413,1.371c0,0.734-0.26,1.352-0.777,1.852c-0.521,0.5-1.2,0.75-2.053,0.75
		c-0.848,0-1.529-0.251-2.051-0.753c-0.521-0.502-0.779-1.128-0.779-1.878c0-0.559,0.146-1.026,0.429-1.403
		c0.275-0.377,0.68-0.634,1.202-0.771C854.666,69.848,854.342,69.619,854.131,69.322z M850.205,92.969
		c-0.479,1.301-1.188,2.291-2.127,2.971c-0.941,0.68-2.045,1.02-3.312,1.02c-1.345,0-2.438-0.373-3.294-1.119
		c-0.844-0.746-1.351-1.796-1.521-3.147l2.022-0.188c0.177,0.953,0.5,1.645,0.984,2.074c0.484,0.429,1.104,0.645,1.863,0.645
		c0.646,0,1.217-0.148,1.705-0.445c0.483-0.297,0.889-0.693,1.196-1.189c0.312-0.496,0.574-1.166,0.785-2.01
		c0.211-0.844,0.316-1.703,0.316-2.578c0-0.094-0.004-0.234-0.015-0.422c-0.424,0.672-0.997,1.217-1.729,1.635
		c-0.732,0.418-1.521,0.627-2.373,0.627c-1.422,0-2.625-0.516-3.609-1.547c-0.979-1.031-1.477-2.391-1.477-4.078
		c0-1.742,0.514-3.145,1.541-4.207c1.027-1.062,2.312-1.594,3.861-1.594c1.113,0,2.139,0.301,3.062,0.902
		c0.926,0.601,1.629,1.459,2.109,2.572c0.479,1.113,0.721,2.725,0.721,4.834C850.92,89.92,850.682,91.668,850.205,92.969z
		 M852.351,74.667h-5.678c-0.008-0.254,0.033-0.498,0.123-0.732c0.146-0.387,0.376-0.768,0.694-1.143
		c0.313-0.375,0.773-0.809,1.38-1.301c0.934-0.766,1.562-1.372,1.893-1.819c0.329-0.447,0.492-0.87,0.492-1.269
		c0-0.418-0.146-0.771-0.448-1.058c-0.299-0.287-0.688-0.431-1.169-0.431c-0.508,0-0.914,0.152-1.219,0.457
		c-0.305,0.305-0.459,0.727-0.463,1.266l-1.084-0.111c0.074-0.809,0.354-1.425,0.838-1.849c0.484-0.424,1.135-0.636,1.951-0.636
		c0.824,0,1.477,0.229,1.957,0.686c0.479,0.457,0.721,1.023,0.721,1.699c0,0.344-0.07,0.682-0.211,1.014s-0.374,0.682-0.7,1.049
		c-0.326,0.367-0.868,0.871-1.626,1.511c-0.633,0.531-1.039,0.892-1.219,1.081s-0.328,0.38-0.445,0.571l4.213,0.001V74.667z
		 M863.014,94.874c-1.102,1.391-2.604,2.086-4.512,2.086c-1.562,0-2.838-0.438-3.826-1.312s-1.555-2.036-1.695-3.481l2.217-0.188
		c0.164,1.078,0.545,1.889,1.143,2.432c0.6,0.543,1.318,0.814,2.162,0.814c1.016,0,1.875-0.383,2.578-1.148
		c0.703-0.765,1.055-1.781,1.055-3.047c0-1.203-0.338-2.152-1.014-2.848c-0.676-0.696-1.562-1.043-2.654-1.043
		c-0.68,0-1.293,0.154-1.84,0.463s-0.977,0.709-1.289,1.201l-1.979-0.258l1.659-8.824h8.548v2.016h-6.855l-0.926,4.617
		c1.031-0.719,2.108-1.078,3.246-1.078c1.5,0,2.766,0.52,3.797,1.559s1.547,2.375,1.547,4.008
		C864.373,92.398,863.92,93.741,863.014,94.874z M877.59,81.351c-1.094,1.164-2.178,2.711-3.252,4.641
		c-1.074,1.93-1.904,3.914-2.49,5.953c-0.422,1.438-0.688,3.012-0.809,4.723h-2.168c0.021-1.352,0.289-2.984,0.797-4.898
		s1.236-3.76,2.186-5.537c0.95-1.777,1.959-3.275,3.029-4.494h-8.414v-0.002V79.71h11.121V81.351L877.59,81.351z M880.678,74.201
		c-0.467,0.405-1.04,0.606-1.72,0.606c-0.852,0-1.536-0.278-2.054-0.835c-0.521-0.557-0.776-1.354-0.776-2.394
		c0-0.672,0.111-1.26,0.334-1.764s0.562-0.882,1.017-1.134c0.455-0.252,0.95-0.378,1.485-0.378c0.676,0,1.229,0.171,1.658,0.513
		c0.429,0.342,0.705,0.827,0.826,1.456l-1.025,0.158c-0.098-0.418-0.271-0.732-0.519-0.943s-0.548-0.316-0.899-0.316
		c-0.531,0-0.963,0.19-1.295,0.571c-0.332,0.381-0.498,0.983-0.498,1.808c0,0.836,0.16,1.443,0.48,1.822
		c0.315,0.379,0.733,0.568,1.254,0.568c0.414,0,0.76-0.127,1.037-0.381c0.274-0.254,0.454-0.643,0.525-1.171l1.037,0.135
		C881.435,73.237,881.145,73.796,880.678,74.201z M884.108,74.749c-0.388,0-0.685-0.061-0.896-0.182s-0.354-0.28-0.445-0.478
		c-0.086-0.198-0.129-0.612-0.129-1.245v-3.58h-0.771v-0.82h0.771v-1.541l1.053-0.633v2.174h1.062v0.82h-1.062v3.639
		c0,0.301,0.02,0.494,0.057,0.58s0.098,0.154,0.182,0.205c0.084,0.051,0.204,0.076,0.36,0.076c0.117,0,0.271-0.014,0.463-0.041
		l0.152,0.932C884.608,74.717,884.343,74.749,884.108,74.749z M897.066,96.667h-2.109V88.78c0-1.055-0.229-1.822-0.686-2.303
		c-0.457-0.481-1.104-0.721-1.939-0.721c-0.625,0-1.213,0.162-1.764,0.486c-0.556,0.324-0.943,0.764-1.183,1.318
		c-0.23,0.554-0.352,1.32-0.352,2.297v6.809l-2.106,0.001v-17.18h2.109v6.164c0.982-1.141,2.227-1.711,3.727-1.711
		c0.922,0,1.728,0.182,2.402,0.545c0.679,0.363,1.166,0.865,1.459,1.506c0.293,0.641,0.438,1.57,0.438,2.789v7.887H897.066z
		 M898.296,74.812c-0.828,0-1.479-0.297-1.951-0.891c-0.562-0.713-0.846-1.878-0.846-3.491c0-1.016,0.104-1.833,0.313-2.452
		s0.52-1.097,0.932-1.433s0.931-0.504,1.556-0.504c0.461,0,0.865,0.093,1.213,0.278c0.353,0.185,0.64,0.453,0.861,0.803
		c0.226,0.35,0.404,0.775,0.533,1.277s0.192,1.179,0.192,2.03c0,1.008-0.104,1.821-0.312,2.44c-0.207,0.619-0.517,1.098-0.929,1.436
		C899.446,74.643,898.923,74.812,898.296,74.812z M902.398,96.666l-2.109,0.001V84.221h2.109V96.666z M902.398,81.913h-2.109v-2.426
		h2.109V81.913z M902.982,69.218v-1.02c0.59-0.277,1.104-0.613,1.547-1.008c0.438-0.395,0.754-0.777,0.938-1.148h0.68v8.625h-1.058
		v-6.721c-0.254,0.242-0.587,0.484-0.999,0.727C903.678,68.916,903.308,69.097,902.982,69.218z M908.926,96.831
		c-0.766,0-1.354-0.121-1.781-0.363c-0.422-0.242-0.719-0.561-0.891-0.955s-0.258-1.225-0.258-2.49v-7.16h-1.547v-1.641h1.547V81.14
		l2.098-1.266v4.348h2.121v1.641h-2.121v7.277c0,0.602,0.037,0.988,0.111,1.16c0.074,0.172,0.195,0.309,0.363,0.41
		s0.408,0.152,0.721,0.152c0.234,0,0.543-0.028,0.926-0.082l0.307,1.863C909.926,96.768,909.395,96.831,908.926,96.831z
		 M921.162,94.995c-0.41,0.621-1.002,1.102-1.775,1.441c-0.771,0.339-1.646,0.51-2.625,0.51c-1.616,0-2.85-0.336-3.693-1.008
		c-0.854-0.672-1.398-1.666-1.635-2.986l2.086-0.328c0.117,0.836,0.443,1.477,0.979,1.922c0.536,0.445,1.283,0.668,2.244,0.668
		c0.969,0,1.688-0.197,2.156-0.592c0.468-0.395,0.7-0.857,0.7-1.389c0-0.477-0.205-0.852-0.618-1.125
		c-0.289-0.188-1.013-0.426-2.156-0.715c-1.547-0.391-2.619-0.729-3.217-1.014c-0.603-0.285-1.056-0.68-1.359-1.184
		c-0.308-0.504-0.463-1.061-0.463-1.67c0-0.555,0.127-1.068,0.381-1.541s0.6-0.865,1.037-1.178c0.328-0.242,0.773-0.447,1.342-0.615
		s1.174-0.252,1.822-0.252c0.977,0,1.834,0.141,2.572,0.422c0.733,0.281,1.278,0.662,1.635,1.143
		c0.352,0.481,0.594,1.123,0.727,1.928l-2.062,0.281c-0.094-0.641-0.365-1.141-0.814-1.5s-1.084-0.539-1.899-0.539
		c-0.974,0-1.66,0.16-2.074,0.48c-0.414,0.32-0.621,0.695-0.621,1.125c0,0.273,0.086,0.52,0.258,0.738
		c0.172,0.227,0.441,0.414,0.812,0.562c0.211,0.078,0.832,0.258,1.858,0.539c1.492,0.398,2.533,0.725,3.123,0.979
		c0.59,0.254,1.055,0.623,1.394,1.107c0.336,0.484,0.504,1.086,0.504,1.805C921.777,93.712,921.572,94.374,921.162,94.995z"/>
	<path fill="#7489A4" d="M871.007,73.84c0.855,0,1.562-0.301,2.112-0.902s0.829-1.455,0.829-2.561c0-0.699-0.118-1.31-0.354-1.831
		c-0.231-0.521-0.582-0.926-1.037-1.213s-0.966-0.431-1.527-0.431c-0.81,0-1.497,0.276-2.077,0.829
		c-0.582,0.553-0.873,1.477-0.873,2.769c0,1.035,0.278,1.851,0.835,2.446C869.469,73.541,870.167,73.84,871.007,73.84z"/>
	<polygon fill="#7489A4" points="912.229,67.77 909.541,71.643 912.229,71.643 	"/>
</g>
<path id="dot1" opacity="0.5" fill="#CCCCCC" enable-background="new    " d="M84.5,336.5c5.522,0,10,4.479,10,10s-4.478,10-10,10
	s-10-4.479-10-10S78.978,336.5,84.5,336.5z"/>
<path id="dot2" opacity="0.5" fill="#CCCCCC" enable-background="new    " d="M160.5,263.5c5.522,0,10,4.479,10,10s-4.478,10-10,10
	s-10-4.479-10-10S154.978,263.5,160.5,263.5z"/>
<path id="dot3" opacity="0.5" fill="#CCCCCC" enable-background="new    " d="M240.5,297.5c5.522,0,10,4.479,10,10s-4.478,10-10,10
	s-10-4.479-10-10S234.978,297.5,240.5,297.5z"/>
<path id="dot4" opacity="0.5" fill="#CCCCCC" enable-background="new    " d="M322.5,162.5c5.522,0,10,4.478,10,10s-4.478,10-10,10
	s-10-4.478-10-10S316.978,162.5,322.5,162.5z"/>
<path id="dot5" opacity="0.5" fill="#CCCCCC" enable-background="new    " d="M399.5,124.5c5.522,0,10,4.478,10,10s-4.478,10-10,10
	s-10-4.478-10-10S393.978,124.5,399.5,124.5z"/>
<path id="dot6" opacity="0.5" fill="#CCCCCC" enable-background="new    " d="M481.5,156.5c5.522,0,10,4.478,10,10s-4.478,10-10,10
	s-10-4.478-10-10S475.978,156.5,481.5,156.5z"/>
<path id="dot7" opacity="0.5" fill="#CCCCCC" enable-background="new    " d="M558.5,141.5c5.521,0,10,4.478,10,10s-4.479,10-10,10
	s-10-4.478-10-10S552.979,141.5,558.5,141.5z"/>
<path id="dot8" opacity="0.5" fill="#CCCCCC" enable-background="new    " d="M640.5,218.5c5.521,0,10,4.479,10,10s-4.479,10-10,10
	s-10-4.479-10-10S634.979,218.5,640.5,218.5z"/>
<path id="dot9" opacity="0.5" fill="#CCCCCC" enable-background="new    " d="M720.5,182.5c5.521,0,10,4.478,10,10s-4.479,10-10,10
	s-10-4.478-10-10S714.979,182.5,720.5,182.5z"/>
<path id="dot10" opacity="0.5" fill="#CCCCCC" enable-background="new    " d="M800.5,225.5c5.521,0,10,4.479,10,10s-4.479,10-10,10
	s-10-4.479-10-10S794.979,225.5,800.5,225.5z"/>
<path id="dot11" opacity="0.5" fill="#CCCCCC" enable-background="new    " d="M961.5,219.5c5.521,0,10,4.479,10,10s-4.479,10-10,10
	s-10-4.479-10-10S955.979,219.5,961.5,219.5z"/>
<path id="dot12" opacity="0.5" fill="#CCCCCC" enable-background="new    " d="M1040.5,201.5c5.521,0,10,4.479,10,10
	s-4.479,10-10,10s-10-4.479-10-10S1034.979,201.5,1040.5,201.5z"/>
<path id="dot13" opacity="0.5" fill="#CCCCCC" enable-background="new    " d="M1119.5,278.5c5.521,0,10,4.479,10,10
	s-4.479,10-10,10s-10-4.479-10-10S1113.979,278.5,1119.5,278.5z"/>
<path opacity="0.5" fill="#CCCCCC" enable-background="new    " d="M172.5,273.5c0,1.547-0.303,3.02-0.836,4.377l56.896,28.448
	c0.169-1.743,0.718-3.371,1.553-4.813l-57.653-28.828C172.477,272.955,172.5,273.225,172.5,273.5z"/>
<path opacity="0.5" fill="#CCCCCC" enable-background="new    " d="M312.304,178.804l-67.207,117.612
	c1.575,0.654,2.973,1.639,4.125,2.859l66.708-116.74C314.464,181.573,313.229,180.297,312.304,178.804z"/>
<path opacity="0.5" fill="#CCCCCC" enable-background="new    " d="M90.404,336.061c1.472,0.834,2.744,1.975,3.744,3.326
	l57.646-57.645c-1.182-1.248-2.098-2.747-2.659-4.412L90.404,336.061z"/>
<path opacity="0.5" fill="#CCCCCC" enable-background="new    " d="M1028.62,209.893l-56.459,14.115
	c0.754,1.461,1.21,3.096,1.306,4.828l55.542-13.887c-0.327-1.094-0.509-2.249-0.509-3.449
	C1028.5,210.953,1028.549,210.42,1028.62,209.893z"/>
<path opacity="0.5" fill="#CCCCCC" enable-background="new    " d="M1051.28,216.745c-0.748,1.532-1.804,2.889-3.102,3.971
	l61.26,61.259c0.918-1.412,2.123-2.617,3.534-3.535L1051.28,216.745z"/>
<path opacity="0.5" fill="#CCCCCC" enable-background="new    " d="M387.578,133.166l-58.549,29.274
	c1.482,0.965,2.733,2.25,3.668,3.756l55.482-27.742c-0.433-1.24-0.681-2.567-0.681-3.955
	C387.5,134.048,387.53,133.604,387.578,133.166z"/>
<path opacity="0.5" fill="#CCCCCC" enable-background="new    " d="M650.417,221.746c0.936,1.371,1.585,2.949,1.887,4.646
	l57.395-28.697c-0.731-1.518-1.156-3.208-1.188-4.998L650.417,221.746z"/>
<path opacity="0.5" fill="#CCCCCC" enable-background="new    " d="M730.689,198.816l57.838,36.148
	c0.08-1.815,0.555-3.528,1.354-5.049l-57.482-35.928C732.181,195.745,731.582,197.38,730.689,198.816z"/>
<path opacity="0.5" fill="#CCCCCC" enable-background="new    " d="M866.256,161.762l-57.676,64.884
	c1.268,1.158,2.296,2.574,2.976,4.181l57.72-64.933C868.057,164.694,867.04,163.298,866.256,161.762z"/>
<path opacity="0.5" fill="#CCCCCC" enable-background="new    " d="M892.511,165.046l58.55,58.55
	c0.834-1.472,1.974-2.744,3.326-3.744l-59.139-59.139C894.574,162.31,893.638,163.764,892.511,165.046z"/>
<path opacity="0.5" fill="#CCCCCC" enable-background="new    " d="M567.207,159.742l62.854,62.854
	c0.834-1.472,1.974-2.744,3.326-3.744l-63.521-63.521C569.304,156.995,568.388,158.494,567.207,159.742z"/>
<path opacity="0.5" fill="#CCCCCC" enable-background="new    " d="M546.555,150.409l-53.383,13.346
	c0.207,0.883,0.328,1.799,0.328,2.745c0,0.817-0.083,1.615-0.239,2.387l53.904-13.476c-0.424-1.227-0.665-2.54-0.665-3.911
	C546.5,151.132,546.521,150.769,546.555,150.409z"/>
<path opacity="0.5" fill="#CCCCCC" enable-background="new    " d="M411.256,132.083c0.16,0.781,0.244,1.589,0.244,2.417
	c0,1.069-0.153,2.101-0.416,3.087l58.431,29.216c-0.002-0.102-0.015-0.2-0.015-0.303c0-1.706,0.361-3.325,1.002-4.794
	L411.256,132.083z"/>
<path fill="#7489A4" d="M894.5,154.5c0-7.731-6.269-14-14-14s-14,6.269-14,14c0,2.29,0.562,4.445,1.536,6.354
	c0.687,1.344,1.576,2.565,2.641,3.615c2.527,2.491,5.995,4.031,9.823,4.031c4.192,0,7.943-1.853,10.51-4.772
	c0.985-1.122,1.807-2.394,2.396-3.791C894.109,158.265,894.5,156.428,894.5,154.5z"/>
</svg>
