<?xml version="1.0" encoding="utf-8"?>
<!DOCTYPE svg PUBLIC "-//W3C//DTD SVG 1.1//EN" "http://www.w3.org/Graphics/SVG/1.1/DTD/svg11.dtd">
<svg version="1.1" id="icon" xmlns="http://www.w3.org/2000/svg" xmlns:xlink="http://www.w3.org/1999/xlink" x="0px" y="0px"
	 width="31.996px" height="31.992px" viewBox="24.002 24.004 31.996 31.992" enable-background="new 24.002 24.004 31.996 31.992"
	 xml:space="preserve">
<g id="user">
	<g>
		<path fill="#A5A39F" d="M26.002,51.959c0-0.795,0.597-1.044,0.835-1.152l8.782-4.146c0.63-0.289,1.064-0.886,1.148-1.572
			c0.085-0.688-0.192-1.369-0.732-1.803c-2.078-1.668-3.046-5.335-3.046-7.288V31c0-2.09,3.638-4.995,7.004-4.995
			c3.396,0,6.998,2.859,6.998,4.995v4.997c0,1.924-0.8,5.604-2.945,7.294c-0.547,0.43-0.831,1.113-0.749,1.807
			c0.082,0.691,0.52,1.291,1.151,1.582l2.997,1.422l0.494-1.996l-2.656-1.244c2.771-2.18,3.708-6.461,3.708-8.862V31
			c0-3.311-4.582-6.996-8.998-6.996S30.989,27.689,30.989,31v4.997c0,2.184,0.997,6.603,3.794,8.849L26,48.988
			c0,0-1.998,0.891-1.998,2v3c0,1.104,0.895,2,1.998,2h21.998v-2H26.002V51.959z M54.998,49.996h-3v-3c0-0.553-0.447-1-1-1
			s-1,0.447-1,1v3h-3c-0.553,0-1,0.447-1,1c0,0.552,0.447,1,1,1h3v3c0,0.552,0.447,1,1,1s1-0.448,1-1v-3h3c0.553,0,1-0.448,1-1
			C55.998,50.443,55.551,49.996,54.998,49.996z"/>
	</g>
</g>
</svg>
