<?xml version="1.0" encoding="utf-8"?>
<!DOCTYPE svg PUBLIC "-//W3C//DTD SVG 1.1//EN" "http://www.w3.org/Graphics/SVG/1.1/DTD/svg11.dtd">
<svg version="1.1" id="icon" xmlns="http://www.w3.org/2000/svg" xmlns:xlink="http://www.w3.org/1999/xlink" x="0px" y="0px"
	 width="32px" height="32px" viewBox="0 0 32 32" enable-background="new 0 0 32 32" xml:space="preserve">
<g id="marker">
	<g>
		<path fill="#A5A39F" d="M16.115,0C9.556,0,4,5.587,4,12.204c0,6.931,6.439,14.019,10.77,18.999C14.786,31.223,15.486,32,16.35,32
			h0.076c0.861,0,1.557-0.777,1.574-0.797c4.064-4.674,10-12.377,10-18.999C28,5.587,23.668,0,16.115,0z M16.518,29.861
			c-0.035,0.035-0.086,0.074-0.131,0.104c-0.047-0.029-0.098-0.068-0.134-0.104l-0.522-0.604C11.623,24.55,6,18.1,6,12.204
			C6,6.673,10.632,2,16.115,2C22.943,2,26,7.125,26,12.204C26,16.68,22.811,22.62,16.518,29.861z M16.036,6.056
			c-3.313,0-6,2.686-6,6c0,3.313,2.687,6,6,6c3.313,0,6-2.688,6-6C22.036,8.742,19.35,6.056,16.036,6.056z M16.036,16.056
			c-2.206,0-4.046-1.838-4.046-4.044c0-2.206,1.794-4,4-4c2.205,0,4,1.794,4,4C19.99,14.217,18.242,16.056,16.036,16.056z"/>
	</g>
</g>
</svg>
