<?xml version="1.0" encoding="utf-8"?>
<!DOCTYPE svg PUBLIC "-//W3C//DTD SVG 1.1//EN" "http://www.w3.org/Graphics/SVG/1.1/DTD/svg11.dtd">
<svg version="1.1" xmlns="http://www.w3.org/2000/svg" xmlns:xlink="http://www.w3.org/1999/xlink" x="0px" y="0px" width="50px"
	 height="50px" viewBox="0 0 50 50" enable-background="new 0 0 50 50" xml:space="preserve">
<g id="icon">
</g>
<g id="consulting">
	<path fill="#EC483B" d="M49,28c0,2.75-2.24,5-5,5c-0.04,0-0.13,0-0.13,0c-0.3-0.01-0.59-0.05-0.88-0.11
		c-0.561-0.109-1.08-0.31-1.55-0.59c-0.11-0.06-0.21-0.13-0.311-0.2c-0.189-0.1-0.399-0.14-0.63-0.14c-0.83,0-1.5,0.66-1.5,1.5V43
		c0,1.1-0.9,2-2,2H25.46c-0.83,0-1.5-0.67-1.5-1.5c0-0.23,0.05-0.44,0.15-0.63c0.069-0.101,0.13-0.2,0.199-0.311
		c0.28-0.47,0.48-0.989,0.591-1.55c0.06-0.29,0.1-0.58,0.1-0.88c0,0,0-0.09,0-0.13c0-2.76-2.24-5-5-5s-5,2.24-5,5
		c0,0.04,0,0.09,0.01,0.13c0.01,0.89,0.27,1.72,0.69,2.43c0.07,0.11,0.13,0.21,0.2,0.311c0.1,0.189,0.15,0.399,0.15,0.63
		c0,0.83-0.67,1.5-1.5,1.5H3c-1.1,0-2-0.9-2-2v-9.54c0-0.84,0.67-1.5,1.5-1.5c0.23,0,0.44,0.04,0.63,0.14
		c0.1,0.07,0.2,0.141,0.31,0.2c0.47,0.28,0.99,0.48,1.55,0.59C5.28,32.95,5.57,32.99,5.87,33c0,0,0.09,0,0.13,0c2.76,0,5-2.25,5-5
		c0-2.76-2.24-5-5-5H5.87c-0.89,0.01-1.72,0.27-2.43,0.7c-0.11,0.06-0.21,0.13-0.31,0.2c-0.19,0.1-0.4,0.14-0.63,0.14
		c-0.83,0-1.5-0.66-1.5-1.5V14c0-1.1,0.9-2,2-2h11.55c0.83,0,1.5-0.67,1.5-1.5c0-0.23-0.05-0.44-0.15-0.63
		c-0.07-0.1-0.13-0.2-0.2-0.31c-0.42-0.71-0.68-1.54-0.69-2.43C15,7.09,15,7.04,15,7c0-2.76,2.24-5,5-5s5,2.24,5,5
		c0,0.04,0,0.13,0,0.13c0,0.3-0.04,0.59-0.1,0.88c-0.11,0.56-0.311,1.08-0.591,1.55c-0.069,0.11-0.13,0.21-0.199,0.31
		c-0.101,0.19-0.15,0.4-0.15,0.63c0,0.83,0.67,1.5,1.5,1.5H37c1.1,0,2,0.9,2,2v8.54c0,0.84,0.67,1.5,1.5,1.5
		c0.23,0,0.44-0.04,0.63-0.14c0.101-0.07,0.2-0.141,0.311-0.2c0.71-0.431,1.54-0.69,2.43-0.7H44C46.76,23,49,25.24,49,28z"/>
</g>
</svg>
