<?xml version="1.0" encoding="utf-8"?>
<!DOCTYPE svg PUBLIC "-//W3C//DTD SVG 1.1//EN" "http://www.w3.org/Graphics/SVG/1.1/DTD/svg11.dtd">
<svg version="1.1" id="Ebene_1" xmlns="http://www.w3.org/2000/svg" xmlns:xlink="http://www.w3.org/1999/xlink" x="0px" y="0px"
	 width="50px" height="50px" viewBox="0 0 50 50" enable-background="new 0 0 50 50" xml:space="preserve">
<g id="icon">
</g>
<g>
	<g>
		<circle fill="#CCCCCC" cx="39" cy="21" r="5"/>
		<g>
			<path fill="#CCCCCC" d="M49.75,33.42c-2.43-2.72-6.18-4.311-10.33-4.41c0.26,0.28,0.51,0.57,0.74,0.87
				c0.54,0.7,0.84,1.57,0.84,2.45v7.65c5.84-0.131,8.18-0.801,8.29-0.842c0.42-0.13,0.71-0.52,0.71-0.959v-4.091
				C50,33.84,49.91,33.609,49.75,33.42z"/>
		</g>
	</g>
	<g>
		<circle fill="#CCCCCC" cx="11" cy="21" r="5"/>
		<g>
			<path fill="#CCCCCC" d="M0,34.09v4.09c0,0.44,0.29,0.83,0.71,0.961C0.82,39.18,3.16,39.85,9,39.98v-7.65
				c0-0.88,0.3-1.75,0.84-2.45c0.23-0.3,0.48-0.59,0.74-0.87c-4.15,0.102-7.9,1.69-10.33,4.41C0.09,33.609,0,33.84,0,34.09z"/>
		</g>
	</g>
	<g>
		<path fill="#CCCCCC" d="M12,32.33v8.891c0,0.389,0.22,0.739,0.57,0.899C12.73,42.2,16.56,44,25,44c8.439,0,12.27-1.8,12.43-1.88
			c0.35-0.16,0.57-0.509,0.57-0.899V32.33c0-0.221-0.07-0.439-0.21-0.609c-0.67-0.859-1.47-1.641-2.37-2.33
			C32.63,27.25,28.88,26,25,26c-5.14,0-10.04,2.189-12.79,5.721C12.07,31.891,12,32.109,12,32.33z"/>
		<g>
			<circle fill="#CCCCCC" cx="25" cy="16.5" r="6.5"/>
		</g>
	</g>
</g>
</svg>
