<?xml version="1.0" encoding="utf-8"?>
<!DOCTYPE svg PUBLIC "-//W3C//DTD SVG 1.1//EN" "http://www.w3.org/Graphics/SVG/1.1/DTD/svg11.dtd">
<svg version="1.1" xmlns="http://www.w3.org/2000/svg" xmlns:xlink="http://www.w3.org/1999/xlink" x="0px" y="0px" width="50px"
	 height="50px" viewBox="0 0 50 50" enable-background="new 0 0 50 50" xml:space="preserve">
<g id="icon">
</g>
<g id="support">
	<path fill="#EC483B" d="M48,14H38V6c0-1.1-0.9-2-2-2H2C0.9,4,0,4.9,0,6v23c0,1.1,0.9,2,2,2h7v7l8-7v7c0,1.1,0.9,2,2,2h18l8,8v-8h3
		c1.1,0,2-0.9,2-2V16C50,14.9,49.1,14,48,14z M15.87,28l-0.85,0.74L12,31.39V28H3V7h32v21H15.87z"/>
</g>
</svg>
