<?xml version="1.0" encoding="utf-8"?>
<!DOCTYPE svg PUBLIC "-//W3C//DTD SVG 1.1//EN" "http://www.w3.org/Graphics/SVG/1.1/DTD/svg11.dtd">
<svg version="1.1" id="icon" xmlns="http://www.w3.org/2000/svg" xmlns:xlink="http://www.w3.org/1999/xlink" x="0px" y="0px"
	 width="50px" height="50px" viewBox="0 0 50 50" enable-background="new 0 0 50 50" xml:space="preserve">
<circle fill="#CCCCCC" cx="25" cy="9" r="6"/>
<path fill="#CCCCCC" d="M28,16c0,9.5,4,18,4,18H18c0,0,4-8.5,4-18C22,16.008,28,16.008,28,16z"/>
<path fill="#CCCCCC" d="M39,46v-4c0,0-3.501-1.321-6-5H17c-2.499,3.679-6,5-6,5v4H39z"/>
<g>
	<path fill="#CCCCCC" d="M18,15.5c0-0.825,0.9-1.5,2-1.5h10c1.1,0,2,0.675,2,1.5S31.1,17,30,17H20C18.9,17,18,16.325,18,15.5z"/>
</g>
</svg>
