<?xml version="1.0" encoding="utf-8"?>
<!DOCTYPE svg PUBLIC "-//W3C//DTD SVG 1.1//EN" "http://www.w3.org/Graphics/SVG/1.1/DTD/svg11.dtd">
<svg version="1.1" id="icon" xmlns="http://www.w3.org/2000/svg" xmlns:xlink="http://www.w3.org/1999/xlink" x="0px" y="0px"
	 width="50px" height="50px" viewBox="0 0 50 50" enable-background="new 0 0 50 50" xml:space="preserve">
<path fill="#CCCCCC" d="M37,0H13c-1.1,0-2,0.9-2,2v46c0,1.1,0.9,2,2,2h24c1.1,0,2-0.9,2-2V2C39,0.9,38.1,0,37,0z M25,48
	c-1.1,0-2-0.89-2-2s0.9-2,2-2s2,0.89,2,2S26.1,48,25,48z M36,42H14V6h22V42z"/>
</svg>
