<?xml version="1.0" encoding="utf-8"?>
<!DOCTYPE svg PUBLIC "-//W3C//DTD SVG 1.1//EN" "http://www.w3.org/Graphics/SVG/1.1/DTD/svg11.dtd">
<svg version="1.1" id="icon" xmlns="http://www.w3.org/2000/svg" xmlns:xlink="http://www.w3.org/1999/xlink" x="0px" y="0px"
	 width="50px" height="50px" viewBox="0 0 50 50" enable-background="new 0 0 50 50" xml:space="preserve">
<path fill="#EC483B" d="M39,14.5c-2.486,0-4.5,2.014-4.5,4.5c0,0.273,0.034,0.538,0.08,0.798l-8.08,4.617v-13.19
	c1.744-0.62,3-2.267,3-4.225c0-2.486-2.014-4.5-4.5-4.5S20.5,4.514,20.5,7c0,1.958,1.256,3.605,3,4.225v13.19l-8.08-4.617
	c0.046-0.26,0.08-0.524,0.08-0.798c0-2.486-2.014-4.5-4.5-4.5S6.5,16.514,6.5,19c0,2.487,2.014,4.5,4.5,4.5
	c1.122,0,2.134-0.425,2.922-1.103L23.5,27.87v11.905c-1.744,0.619-3,2.268-3,4.225c0,2.486,2.014,4.5,4.5,4.5s4.5-2.014,4.5-4.5
	c0-1.957-1.256-3.605-3-4.225V27.87l9.578-5.473c0.788,0.678,1.8,1.103,2.922,1.103c2.486,0,4.5-2.013,4.5-4.5
	C43.5,16.514,41.486,14.5,39,14.5z"/>
</svg>
