<?xml version="1.0" encoding="utf-8"?>
<!DOCTYPE svg PUBLIC "-//W3C//DTD SVG 1.1//EN" "http://www.w3.org/Graphics/SVG/1.1/DTD/svg11.dtd">
<svg version="1.1" xmlns="http://www.w3.org/2000/svg" xmlns:xlink="http://www.w3.org/1999/xlink" x="0px" y="0px" width="50px"
	 height="50px" viewBox="0 0 50 50" enable-background="new 0 0 50 50" xml:space="preserve">
<g id="icon">
</g>
<g id="team_leading_Kopie">
	<g>
		<circle fill="#EC483B" cx="39" cy="21" r="5"/>
		<g>
			<path fill="#EC483B" d="M49.75,33.42c-2.43-2.72-6.18-4.31-10.33-4.41c0.26,0.28,0.51,0.57,0.74,0.87
				c0.54,0.7,0.84,1.57,0.84,2.45v7.65c5.84-0.131,8.18-0.801,8.29-0.841c0.42-0.13,0.71-0.52,0.71-0.96v-4.09
				C50,33.84,49.91,33.61,49.75,33.42z"/>
		</g>
	</g>
	<g>
		<circle fill="#EC483B" cx="11" cy="21" r="5"/>
		<g>
			<path fill="#EC483B" d="M0,34.09v4.09c0,0.44,0.29,0.83,0.71,0.96C0.82,39.18,3.16,39.85,9,39.98v-7.65
				c0-0.88,0.3-1.75,0.84-2.45c0.23-0.3,0.48-0.59,0.74-0.87c-4.15,0.101-7.9,1.69-10.33,4.41C0.09,33.61,0,33.84,0,34.09z"/>
		</g>
	</g>
	<g>
		<g>
			<g>
				<path fill="#EC483B" d="M37.79,31.72c-0.67-0.859-1.47-1.64-2.37-2.33C32.63,27.25,28.88,26,25,26
					c-5.14,0-10.04,2.19-12.79,5.72C12.07,31.89,12,32.11,12,32.33v8.89c0,0.391,0.22,0.74,0.57,0.9C12.73,42.2,16.56,44,25,44
					s12.27-1.8,12.43-1.88c0.351-0.16,0.57-0.51,0.57-0.9v-8.89C38,32.11,37.93,31.89,37.79,31.72z"/>
			</g>
		</g>
		<g>
			<circle fill="#EC483B" cx="25" cy="16.5" r="6.5"/>
		</g>
	</g>
</g>
</svg>
