<?xml version="1.0" encoding="utf-8"?>
<!DOCTYPE svg PUBLIC "-//W3C//DTD SVG 1.1//EN" "http://www.w3.org/Graphics/SVG/1.1/DTD/svg11.dtd">
<svg version="1.1" id="Ebene_1" xmlns="http://www.w3.org/2000/svg" xmlns:xlink="http://www.w3.org/1999/xlink" x="0px" y="0px"
	 width="134px" height="40px" viewBox="0 0 134 40" enable-background="new 0 0 134 40" xml:space="preserve">
<g>
	<path fill="#666666" d="M53,28.881l7.268-16.762h1.011l7.267,16.762h-1.322l-2.384-5.523h-8.157L54.3,28.881H53z M60.772,13.583
		l-3.802,8.782h7.531L60.772,13.583z"/>
	<path fill="#666666" d="M71.648,12.119l6.522,15.252l6.496-15.252h1.3l-7.244,16.762h-1.105l-7.244-16.762H71.648z"/>
	<path fill="#666666" d="M90.997,28.881V12.143h1.228v16.738H90.997z"/>
	<path fill="#666666" d="M106.037,29c-1.188,0-2.27-0.244-3.249-0.732c-0.979-0.486-1.82-1.125-2.526-1.912
		c-0.705-0.787-1.25-1.691-1.637-2.715c-0.385-1.022-0.577-2.07-0.577-3.141c0-1.117,0.204-2.188,0.614-3.211
		c0.408-1.022,0.97-1.928,1.684-2.715c0.715-0.787,1.562-1.413,2.539-1.877c0.979-0.465,2.038-0.697,3.178-0.697
		c1.187,0,2.27,0.248,3.248,0.744c0.978,0.496,1.816,1.145,2.515,1.947c0.698,0.804,1.239,1.712,1.625,2.728
		c0.385,1.016,0.577,2.042,0.577,3.081c0,1.134-0.205,2.212-0.613,3.234c-0.409,1.022-0.971,1.925-1.686,2.703
		c-0.713,0.778-1.557,1.401-2.526,1.864C108.23,28.768,107.177,29,106.037,29z M99.273,20.5c0,0.961,0.166,1.885,0.494,2.773
		c0.33,0.89,0.795,1.677,1.396,2.361c0.602,0.684,1.314,1.231,2.143,1.641c0.826,0.41,1.735,0.613,2.73,0.613
		c1.025,0,1.953-0.213,2.779-0.637c0.826-0.426,1.535-0.988,2.129-1.688c0.595-0.701,1.052-1.491,1.371-2.373
		c0.322-0.883,0.481-1.778,0.481-2.691c0-0.96-0.168-1.885-0.505-2.774s-0.807-1.676-1.408-2.361
		c-0.602-0.684-1.314-1.23-2.142-1.641c-0.826-0.408-1.729-0.613-2.707-0.613c-1.026,0-1.957,0.213-2.791,0.638
		s-1.545,0.988-2.131,1.688c-0.585,0.701-1.038,1.492-1.358,2.373C99.436,18.69,99.273,19.587,99.273,20.5z"/>
	<path fill="#666666" d="M121.077,14.386v14.495h-1.229V12.119h0.939l11.984,14.756V12.143H134v16.738h-1.132L121.077,14.386z"/>
</g>
<rect fill="#EC483B" width="42" height="40"/>
<g>
	<polygon fill="#FFFFFF" points="31,22.5 26.5,22.5 30,29 21,29 12,29 15.5,22.5 11,22.5 5,33 21,33 37,33 	"/>
	<polygon fill="#FFFFFF" points="18,18.495 21,13 24,18.495 28.711,18.5 21,5 13.289,18.5 	"/>
</g>
</svg>
