<?xml version="1.0" encoding="utf-8"?>
<!DOCTYPE svg PUBLIC "-//W3C//DTD SVG 1.1//EN" "http://www.w3.org/Graphics/SVG/1.1/DTD/svg11.dtd">
<svg version="1.1" id="Ebene_1" xmlns="http://www.w3.org/2000/svg" xmlns:xlink="http://www.w3.org/1999/xlink" x="0px" y="0px"
	 width="390px" height="280px" viewBox="0 0 390 280" enable-background="new 0 0 390 280" xml:space="preserve">
<rect fill="#F5F5F5" width="390" height="280"/>
<rect x="20" y="94.25" fill="#FFFFFF" width="140" height="100"/>
<g opacity="0.5">
	<path fill="#666666" d="M39.188,117.344h-0.986v-3.992h-4.468v3.992h-0.986v-8.482h0.986v3.609h4.468v-3.609h0.986V117.344z"/>
	<path fill="#666666" d="M46.243,117.344h-4.729v-8.482h4.729v0.876h-3.742v2.733h3.516v0.87h-3.516v3.122h3.742V117.344z"/>
	<path fill="#666666" d="M53.456,117.344l-1.056-2.698H49l-1.044,2.698h-0.998l3.354-8.518h0.83l3.336,8.518H53.456z
		 M52.092,113.758l-0.986-2.628c-0.127-0.333-0.259-0.74-0.395-1.225c-0.085,0.372-0.207,0.779-0.366,1.225l-0.998,2.628H52.092z"/>
	<path fill="#666666" d="M62.414,113.021c0,1.4-0.38,2.471-1.141,3.211c-0.759,0.74-1.854,1.111-3.281,1.111h-2.35v-8.482h2.6
		c1.319,0,2.344,0.365,3.075,1.096C62.048,110.689,62.414,111.71,62.414,113.021z M61.37,113.056c0-1.106-0.278-1.94-0.833-2.501
		c-0.555-0.56-1.38-0.841-2.475-0.841h-1.434v6.777h1.201c1.176,0,2.06-0.289,2.652-0.868
		C61.074,115.045,61.37,114.189,61.37,113.056z"/>
	<path fill="#666666" d="M64.305,117.344v-8.482h0.987v8.482H64.305z"/>
	<path fill="#666666" d="M74.245,117.344h-1.126l-4.636-7.119h-0.046c0.062,0.835,0.093,1.602,0.093,2.298v4.821h-0.911v-8.482
		h1.114l4.625,7.09h0.046c-0.008-0.104-0.025-0.44-0.052-1.006c-0.027-0.567-0.037-0.973-0.029-1.216v-4.868h0.923V117.344z"/>
	<path fill="#666666" d="M80.308,112.899h2.884v4.125c-0.448,0.143-0.905,0.251-1.369,0.325c-0.464,0.074-1.002,0.11-1.613,0.11
		c-1.284,0-2.284-0.382-3-1.146c-0.715-0.764-1.074-1.835-1.074-3.212c0-0.882,0.177-1.654,0.532-2.318
		c0.353-0.663,0.863-1.169,1.528-1.52c0.666-0.35,1.445-0.525,2.338-0.525c0.905,0,1.748,0.167,2.53,0.499l-0.383,0.87
		c-0.766-0.325-1.502-0.487-2.21-0.487c-1.033,0-1.839,0.308-2.419,0.923c-0.58,0.615-0.871,1.468-0.871,2.559
		c0,1.145,0.279,2.013,0.838,2.605s1.38,0.888,2.463,0.888c0.587,0,1.162-0.067,1.723-0.203v-2.611h-1.897V112.899z"/>
</g>
<rect x="230" y="94.25" fill="#FFFFFF" width="140" height="100"/>
<g opacity="0.5">
	<path fill="#666666" d="M249.188,117.344h-0.986v-3.992h-4.467v3.992h-0.986v-8.482h0.986v3.609h4.467v-3.609h0.986V117.344z"/>
	<path fill="#666666" d="M256.243,117.344h-4.729v-8.482h4.729v0.876h-3.742v2.733h3.517v0.87h-3.517v3.122h3.742V117.344z"/>
	<path fill="#666666" d="M263.455,117.344l-1.056-2.698H259l-1.045,2.698h-0.998l3.354-8.518h0.83l3.336,8.518H263.455z
		 M262.092,113.758l-0.986-2.628c-0.127-0.333-0.26-0.74-0.395-1.225c-0.086,0.372-0.207,0.779-0.365,1.225l-0.998,2.628H262.092z"
		/>
	<path fill="#666666" d="M272.414,113.021c0,1.4-0.38,2.471-1.141,3.211c-0.76,0.74-1.854,1.111-3.281,1.111h-2.35v-8.482h2.6
		c1.318,0,2.344,0.365,3.075,1.096C272.049,110.689,272.414,111.71,272.414,113.021z M271.369,113.056
		c0-1.106-0.277-1.94-0.832-2.501c-0.555-0.56-1.38-0.841-2.475-0.841h-1.434v6.777h1.201c1.176,0,2.061-0.289,2.652-0.868
		C271.074,115.045,271.369,114.189,271.369,113.056z"/>
	<path fill="#666666" d="M274.305,117.344v-8.482h0.987v8.482H274.305z"/>
	<path fill="#666666" d="M284.244,117.344h-1.125l-4.637-7.119h-0.046c0.062,0.835,0.093,1.602,0.093,2.298v4.821h-0.91v-8.482
		h1.113l4.625,7.09h0.046c-0.008-0.104-0.024-0.44-0.052-1.006c-0.027-0.567-0.037-0.973-0.029-1.216v-4.868h0.922V117.344z"/>
	<path fill="#666666" d="M290.308,112.899h2.884v4.125c-0.448,0.143-0.905,0.251-1.369,0.325c-0.465,0.074-1.002,0.11-1.613,0.11
		c-1.283,0-2.284-0.382-3-1.146c-0.715-0.764-1.073-1.835-1.073-3.212c0-0.882,0.177-1.654,0.532-2.318
		c0.353-0.663,0.862-1.169,1.527-1.52c0.666-0.35,1.445-0.525,2.339-0.525c0.905,0,1.748,0.167,2.53,0.499l-0.384,0.87
		c-0.766-0.325-1.503-0.487-2.21-0.487c-1.033,0-1.84,0.308-2.42,0.923c-0.58,0.615-0.871,1.468-0.871,2.559
		c0,1.145,0.279,2.013,0.839,2.605s1.38,0.888,2.464,0.888c0.587,0,1.162-0.067,1.723-0.203v-2.611h-1.897V112.899z"/>
</g>
<rect x="32.748" y="129.721" fill="#EEEEEE" width="100" height="4"/>
<rect x="32.748" y="139.721" fill="#EEEEEE" width="88" height="4"/>
<rect x="242.748" y="129.721" fill="#EEEEEE" width="100" height="4"/>
<rect x="242.748" y="139.721" fill="#EEEEEE" width="88" height="4"/>
<g>
	<g>
		<rect x="115" y="78.25" fill="#FFFFFF" width="160" height="124"/>
	</g>
</g>
<rect x="115" y="77.75" fill="#EC483B" width="160" height="5"/>
<g>
	<path fill="#666666" d="M142.212,112.352h-1.162v-4.703h-5.264v4.703h-1.162v-9.994h1.162v4.252h5.264v-4.252h1.162V112.352z"/>
	<path fill="#666666" d="M150.524,112.352h-5.571v-9.994h5.571v1.032h-4.409v3.22h4.143v1.025h-4.143v3.678h4.409V112.352z"/>
	<path fill="#666666" d="M159.021,112.352l-1.244-3.179h-4.006l-1.23,3.179h-1.176l3.951-10.035h0.978l3.931,10.035H159.021z
		 M157.415,108.127l-1.162-3.097c-0.15-0.392-0.306-0.873-0.465-1.442c-0.101,0.438-0.244,0.918-0.431,1.442l-1.176,3.097H157.415z"
		/>
	<path fill="#666666" d="M169.576,107.259c0,1.65-0.447,2.911-1.344,3.784c-0.895,0.873-2.184,1.309-3.865,1.309h-2.769v-9.994
		h3.062c1.554,0,2.762,0.431,3.623,1.292S169.576,105.714,169.576,107.259z M168.346,107.3c0-1.303-0.327-2.286-0.98-2.946
		c-0.654-0.661-1.626-0.991-2.916-0.991h-1.688v7.984h1.415c1.386,0,2.427-0.341,3.124-1.022S168.346,108.635,168.346,107.3z"/>
	<path fill="#666666" d="M171.805,112.352v-9.994h1.162v9.994H171.805z"/>
	<path fill="#666666" d="M183.515,112.352h-1.326l-5.462-8.388h-0.055c0.073,0.984,0.109,1.887,0.109,2.707v5.681h-1.073v-9.994
		h1.312l5.448,8.354h0.055c-0.009-0.123-0.029-0.519-0.062-1.186s-0.043-1.145-0.034-1.432v-5.735h1.087V112.352z"/>
	<path fill="#666666" d="M190.658,107.115h3.397v4.86c-0.528,0.168-1.066,0.296-1.613,0.383s-1.181,0.13-1.9,0.13
		c-1.513,0-2.691-0.45-3.534-1.35s-1.265-2.161-1.265-3.784c0-1.039,0.208-1.949,0.626-2.731c0.416-0.782,1.017-1.378,1.801-1.791
		s1.702-0.619,2.755-0.619c1.066,0,2.06,0.196,2.98,0.588l-0.451,1.025c-0.902-0.383-1.771-0.574-2.604-0.574
		c-1.217,0-2.167,0.362-2.851,1.087s-1.025,1.729-1.025,3.015c0,1.349,0.329,2.372,0.987,3.069c0.659,0.697,1.626,1.046,2.902,1.046
		c0.692,0,1.369-0.08,2.03-0.239v-3.076h-2.235V107.115z"/>
</g>
<rect x="134.624" y="127.721" fill="#EEEEEE" width="100" height="4"/>
<rect x="134.624" y="139.721" fill="#EEEEEE" width="88" height="4"/>
<polygon fill="#EEEEEE" points="227.624,155.656 134.624,155.721 134.624,151.721 227.624,151.656 "/>
<rect x="114" y="94.25" fill="#F5F5F5" width="1" height="100"/>
<rect x="275" y="94.25" fill="#F5F5F5" width="1" height="100"/>
</svg>
