<?xml version="1.0" encoding="utf-8"?>
<!DOCTYPE svg PUBLIC "-//W3C//DTD SVG 1.1//EN" "http://www.w3.org/Graphics/SVG/1.1/DTD/svg11.dtd">
<svg version="1.1" id="Ebene_1" xmlns="http://www.w3.org/2000/svg" xmlns:xlink="http://www.w3.org/1999/xlink" x="0px" y="0px"
	 width="390px" height="280px" viewBox="0 0 390 280" enable-background="new 0 0 390 280" xml:space="preserve">
<rect fill="#F5F5F5" width="390" height="280"/>
<rect x="45.012" y="39.952" fill="#FFFFFF" width="300" height="200"/>
<rect x="44.988" y="90.047" opacity="0.5" fill="#FBFBFB" enable-background="new    " width="70" height="150"/>
<polygon opacity="0.15" fill="#78797A" enable-background="new    " points="45,90 45,91 114,91 114,140 45,140 45,141 114,141
	114,190 45,190 45,191 114,191 114,240 115,240 115,141 115,140 115,90 "/>
<g>
	<path fill="#666666" d="M232.588,110.138h-1.162v-4.703h-5.264v4.703H225v-9.994h1.162v4.252h5.264v-4.252h1.162V110.138
		L232.588,110.138z"/>
	<path fill="#666666" d="M240.899,110.138h-5.57v-9.994h5.57v1.032h-4.408v3.22h4.143v1.025h-4.143v3.678h4.408V110.138z"/>
	<path fill="#666666" d="M249.397,110.138l-1.244-3.179h-4.006l-1.23,3.179h-1.176l3.951-10.035h0.978l3.931,10.035H249.397z
		 M247.791,105.913l-1.162-3.097c-0.149-0.392-0.306-0.873-0.465-1.442c-0.101,0.438-0.244,0.918-0.431,1.442l-1.176,3.097H247.791z
		"/>
	<path fill="#666666" d="M259.952,105.045c0,1.65-0.447,2.911-1.344,3.784c-0.896,0.873-2.185,1.309-3.865,1.309h-2.77v-9.994h3.062
		c1.554,0,2.762,0.431,3.623,1.292C259.521,102.297,259.952,103.5,259.952,105.045z M258.722,105.086
		c0-1.303-0.326-2.286-0.979-2.946c-0.654-0.661-1.626-0.991-2.916-0.991h-1.688v7.984h1.415c1.386,0,2.427-0.341,3.124-1.022
		S258.722,106.422,258.722,105.086z"/>
	<path fill="#666666" d="M262.181,110.138v-9.994h1.162v9.994H262.181z"/>
	<path fill="#666666" d="M273.892,110.138h-1.326l-5.463-8.388h-0.055c0.073,0.984,0.109,1.887,0.109,2.707v5.681h-1.073v-9.994
		h1.312l5.449,8.354h0.055c-0.01-0.123-0.029-0.519-0.062-1.186c-0.033-0.667-0.043-1.145-0.033-1.432v-5.735h1.086v9.993H273.892z"
		/>
	<path fill="#666666" d="M281.034,104.902h3.396v4.86c-0.527,0.168-1.066,0.296-1.613,0.383c-0.547,0.087-1.181,0.13-1.899,0.13
		c-1.513,0-2.69-0.45-3.534-1.35c-0.843-0.9-1.265-2.161-1.265-3.784c0-1.039,0.208-1.949,0.626-2.731
		c0.416-0.782,1.017-1.378,1.801-1.791c0.784-0.413,1.702-0.619,2.755-0.619c1.066,0,2.06,0.196,2.979,0.588l-0.45,1.025
		c-0.902-0.383-1.771-0.574-2.604-0.574c-1.217,0-2.166,0.362-2.851,1.087s-1.024,1.729-1.024,3.015
		c0,1.349,0.328,2.372,0.986,3.069c0.659,0.697,1.626,1.046,2.902,1.046c0.691,0,1.369-0.08,2.029-0.239v-3.076h-2.234V104.902
		L281.034,104.902z"/>
</g>
<path fill="#EEEEEE" d="M136,90v100h70V90H136z"/>
<g>
	<polygon fill="#CCCCCC" points="144.449,155.792 156.152,143.496 160.537,145.392 174.372,130.66 179.818,137.176 182.274,135.692
		195.574,155.792 	"/>
	<path fill="#CCCCCC" d="M157.964,123.923c2.826,0,5.111,2.288,5.111,5.112c0,2.822-2.285,5.111-5.111,5.111
		c-2.819,0-5.112-2.289-5.112-5.111C152.852,126.211,155.145,123.923,157.964,123.923z"/>
</g>
<rect x="225" y="125" fill="#EEEEEE" width="100" height="4"/>
<rect x="225" y="137" fill="#EEEEEE" width="88" height="4"/>
<polygon fill="#EEEEEE" points="318,152.936 225,153 225,149 318,148.936 "/>
</svg>
