<?xml version="1.0" encoding="utf-8"?>
<!DOCTYPE svg PUBLIC "-//W3C//DTD SVG 1.1//EN" "http://www.w3.org/Graphics/SVG/1.1/DTD/svg11.dtd">
<svg version="1.1" id="features_icon_warp" xmlns="http://www.w3.org/2000/svg" xmlns:xlink="http://www.w3.org/1999/xlink" x="0px" y="0px"
	 width="150px" height="150px" viewBox="-0.5 0.5 150 150" enable-background="new -0.5 0.5 150 150" xml:space="preserve">
<path fill="#444444" d="M135.332,88.584c-0.009,0.251-0.018,0.478-0.029,0.676c-0.045,0.166-0.057,0.337-0.065,0.45
	c-0.012,0.075-0.018,0.16-0.018,0.186c-0.03-0.009-0.122-0.029-0.232-0.054c-0.124-0.062-0.267-0.101-0.473-0.179
	c-0.207-0.051-0.439-0.147-0.691-0.253c-0.253-0.104-0.534-0.228-0.87-0.356c-0.337-0.137-0.695-0.284-1.076-0.477
	c-0.377-0.162-0.811-0.377-1.266-0.598c-0.419-0.228-0.892-0.472-1.411-0.729c-0.487-0.261-0.995-0.57-1.551-0.862
	c-0.522-0.329-1.094-0.677-1.675-1.043c-0.586-0.367-1.181-0.784-1.792-1.191c-0.606-0.438-1.233-0.859-1.893-1.379
	c-0.633-0.479-1.308-0.983-1.958-1.545c-0.684-0.527-1.376-1.105-2.07-1.715c-0.663-0.602-1.364-1.266-2.077-1.917
	c-0.707-0.688-1.42-1.399-2.139-2.154c-0.713-0.737-1.433-1.518-2.151-2.341c-0.754-0.825-1.39-1.634-1.979-2.407
	c-0.594-0.774-1.104-1.518-1.568-2.261c-0.473-0.723-0.892-1.433-1.248-2.106c-0.354-0.688-0.639-1.348-0.879-1.991
	c-0.25-0.624-0.461-1.25-0.606-1.823c-0.179-0.589-0.256-1.167-0.351-1.709c-0.086-0.541-0.118-1.066-0.122-1.576
	c-0.003-0.49,0.021-0.967,0.06-1.408c0.071-0.459,0.167-0.883,0.238-1.294c0.109-0.409,0.237-0.782,0.406-1.141
	c0.14-0.355,0.292-0.7,0.479-1.007c0.157-0.329,0.356-0.618,0.528-0.877c0.205-0.276,0.416-0.517,0.595-0.728
	c0.214-0.224,0.422-0.415,0.597-0.593c0.211-0.174,0.417-0.331,0.579-0.459c0.209-0.127,0.363-0.235,0.547-0.31
	c0.042-0.042,0.122-0.062,0.167-0.101c0.077-0.022,0.121-0.06,0.204-0.079c0.042-0.037,0.126-0.054,0.168-0.092
	c0.076-0.019,0.124-0.032,0.201-0.065c0.044-0.018,0.121-0.049,0.205-0.065c0.039-0.015,0.122-0.046,0.167-0.06
	c0.077-0.014,0.124-0.043,0.204-0.052c0.041-0.014,0.122-0.023,0.167-0.032c0.077-0.028,0.124-0.039,0.204-0.051
	c0.042-0.009,0.122-0.034,0.205-0.04c0.042-0.01,0.125-0.017,0.166-0.024c0.081-0.004,0.125-0.027,0.202-0.031
	c0.049-0.004,0.128-0.012,0.17-0.015c0.08-0.003,0.128-0.007,0.205-0.009c0.045-0.003,0.128-0.006,0.17-0.008
	c0.077,0,0.156-0.001,0.201-0.001c0.457,0,0.912,0.032,1.328,0.119c0.454,0.073,0.897,0.189,1.311,0.325
	c0.445,0.155,0.885,0.333,1.289,0.527c0.439,0.195,0.841,0.428,1.269,0.691c0.392,0.244,0.784,0.506,1.197,0.797
	c0.38,0.288,0.758,0.59,1.126,0.898c0.401,0.326,0.763,0.645,1.114,0.983c0.351,0.322,0.659,0.664,0.995,1.01
	c0.336,0.326,0.624,0.668,0.938,1.013c0.279,0.324,0.583,0.665,0.844,0.98c0.262,0.332,0.503,0.64,0.74,0.939
	c0.231,0.303,0.454,0.588,0.666,0.849c0.207,0.277,0.367,0.522,0.517,0.75c0.178,0.229,0.309,0.422,0.425,0.596
	c0.118,0.172,0.22,0.31,0.27,0.419c0.081,0.113,0.113,0.18,0.128,0.225c0.672,1.076,1.278,2.139,1.852,3.162
	c0.534,1.023,1.081,2.024,1.556,3c0.477,0.971,0.928,1.915,1.316,2.821c0.39,0.908,0.756,1.79,1.094,2.653
	c0.345,0.848,0.62,1.671,0.915,2.455c0.262,0.791,0.499,1.57,0.716,2.294c0.221,0.725,0.387,1.424,0.537,2.069
	c0.179,0.676,0.31,1.297,0.423,1.894c0.118,0.597,0.223,1.176,0.279,1.725c0.083,0.516,0.163,1.011,0.195,1.474
	c0.03,0.471,0.093,0.917,0.104,1.302c0.015,0.385,0.023,0.747,0.026,1.078C135.341,88.06,135.338,88.334,135.332,88.584z
	 M121.675,46.906c-0.033,0.168-0.118,0.34-0.211,0.487c-0.053,0.167-0.157,0.331-0.268,0.481c-0.115,0.165-0.234,0.327-0.371,0.471
	c-0.14,0.161-0.317,0.303-0.472,0.461c-0.19,0.141-0.36,0.293-0.58,0.426c-0.077,0.05-0.121,0.095-0.199,0.123
	c-0.039,0.046-0.122,0.089-0.166,0.116c-0.074,0.043-0.122,0.065-0.205,0.107c-0.041,0.042-0.122,0.065-0.17,0.104
	c-0.077,0.025-0.13,0.06-0.207,0.085c-0.081,0.037-0.134,0.057-0.215,0.092c-0.05,0.022-0.134,0.035-0.181,0.073
	c-0.083,0.016-0.169,0.049-0.22,0.062c-0.086,0.018-0.137,0.049-0.226,0.061c-0.081,0.014-0.134,0.042-0.221,0.053
	c-0.091,0.01-0.142,0.023-0.229,0.049c-0.053,0.01-0.14,0.018-0.231,0.028c-0.054,0.007-0.14,0.031-0.232,0.039
	c-0.053,0.004-0.142,0.009-0.237,0.012c-0.053,0.003-0.146,0.006-0.237,0.007c-0.057,0.003-0.146,0.003-0.244,0.003
	c-0.181,0-0.392-0.006-0.612-0.019c-0.219-0.013-0.4-0.051-0.63-0.09c-0.225-0.03-0.454-0.076-0.68-0.131
	c-0.231-0.055-0.463-0.117-0.695-0.187c-0.234-0.07-0.479-0.161-0.719-0.244c-0.237-0.1-0.484-0.19-0.728-0.303
	c-0.25-0.113-0.496-0.233-0.749-0.363c-0.282-0.146-0.538-0.279-0.79-0.441c-0.258-0.14-0.518-0.309-0.812-0.481
	c-0.259-0.175-0.528-0.356-0.822-0.548c-0.271-0.188-0.538-0.405-0.841-0.605c-0.273-0.223-0.579-0.452-0.853-0.689
	c-0.279-0.238-0.589-0.484-0.871-0.738c-0.309-0.272-0.591-0.536-0.909-0.822c-0.285-0.287-0.604-0.583-0.927-0.888
	c-0.288-0.305-0.612-0.634-0.941-0.957c-0.291-0.337-0.601-0.654-0.862-0.983c-0.261-0.312-0.513-0.623-0.748-0.948
	c-0.234-0.306-0.467-0.609-0.674-0.912c-0.217-0.298-0.381-0.594-0.571-0.885c-0.154-0.294-0.294-0.583-0.428-0.848
	c-0.166-0.287-0.285-0.565-0.356-0.821c-0.107-0.275-0.205-0.529-0.294-0.779c-0.051-0.246-0.134-0.506-0.166-0.744
	c-0.068-0.239-0.096-0.456-0.11-0.68c-0.012-0.229-0.023-0.45-0.018-0.648c0.003-0.217,0.015-0.41,0.032-0.595
	c0.018-0.188,0.08-0.366,0.112-0.541c0.036-0.175,0.113-0.341,0.2-0.484c0.047-0.159,0.136-0.297,0.237-0.444
	c0.062-0.131,0.166-0.251,0.276-0.367c0.11-0.116,0.229-0.221,0.348-0.304c0.032-0.04,0.101-0.064,0.131-0.106
	c0.035-0.022,0.104-0.059,0.137-0.081c0.068-0.038,0.101-0.055,0.142-0.095c0.068-0.021,0.104-0.055,0.176-0.073
	c0.036-0.036,0.107-0.052,0.14-0.068c0.039-0.033,0.113-0.05,0.152-0.062c0.07-0.033,0.106-0.047,0.184-0.058
	c0.035-0.031,0.112-0.045,0.151-0.053c0.072-0.011,0.116-0.042,0.189-0.05c0.036-0.011,0.116-0.02,0.158-0.045
	c0.038-0.006,0.119-0.017,0.158-0.022c0.076-0.009,0.118-0.017,0.198-0.037c0.077-0.006,0.122-0.01,0.196-0.017
	c0.045-0.004,0.124-0.006,0.169-0.01c0.08-0.003,0.125-0.004,0.206-0.004c0.044,0,0.127-0.001,0.172-0.001
	c0.326,0.001,0.656,0.015,1.001,0.064c0.3,0.031,0.65,0.092,1.004,0.184c0.357,0.075,0.714,0.181,1.078,0.3
	c0.36,0.121,0.767,0.25,1.133,0.41c0.374,0.142,0.748,0.312,1.126,0.492c0.409,0.183,0.784,0.388,1.167,0.588
	c0.375,0.218,0.787,0.424,1.171,0.658c0.374,0.231,0.751,0.472,1.161,0.721c0.378,0.263,0.749,0.518,1.123,0.777
	c0.371,0.278,0.733,0.559,1.1,0.83c0.401,0.284,0.761,0.575,1.108,0.869c0.314,0.294,0.665,0.591,1.007,0.89
	c0.339,0.298,0.669,0.6,0.963,0.906c0.323,0.301,0.603,0.602,0.909,0.922c0.273,0.303,0.569,0.604,0.822,0.906
	c0.249,0.303,0.49,0.603,0.726,0.901c0.115,0.161,0.229,0.308,0.342,0.473c0.115,0.164,0.229,0.313,0.296,0.481
	c0.11,0.166,0.215,0.337,0.312,0.487c0.101,0.169,0.163,0.341,0.259,0.512c0.095,0.169,0.142,0.345,0.225,0.498
	c0.084,0.172,0.123,0.348,0.2,0.519c0.032,0.172,0.065,0.348,0.128,0.52c0.023,0.174,0.041,0.329,0.051,0.503
	c0.012,0.171,0.018,0.346,0.012,0.519c-0.004,0.169-0.021,0.343-0.039,0.514C121.779,46.568,121.717,46.737,121.675,46.906z
	 M99.721,32.093c-0.051,0.155-0.146,0.32-0.247,0.477c-0.107,0.14-0.223,0.272-0.349,0.392c-0.056,0.085-0.14,0.155-0.23,0.222
	c-0.055,0.062-0.152,0.13-0.247,0.188c-0.06,0.062-0.158,0.122-0.259,0.18c-0.101,0.059-0.201,0.116-0.272,0.169
	c-0.102,0.052-0.206,0.104-0.312,0.154c-0.106,0.034-0.22,0.083-0.327,0.131c-0.077,0.05-0.192,0.077-0.303,0.12
	c-0.11,0.046-0.229,0.068-0.342,0.11c-0.119,0.025-0.237,0.062-0.354,0.083c-0.118,0.036-0.237,0.054-0.362,0.087
	c-0.119,0.02-0.24,0.033-0.365,0.06c-0.125,0.018-0.247,0.031-0.369,0.04c-0.162,0.027-0.29,0.036-0.415,0.045
	c-0.132,0.009-0.256,0.016-0.384,0.037c-0.127,0.005-0.261,0.008-0.393,0.011c-0.163,0-0.294,0.001-0.427,0.001
	c-0.213,0-0.396-0.001-0.616-0.009c-0.217-0.007-0.43-0.031-0.617-0.044c-0.22-0.01-0.436-0.04-0.659-0.056
	c-0.222-0.017-0.398-0.051-0.62-0.075c-0.221-0.036-0.437-0.061-0.621-0.103c-0.218-0.042-0.432-0.071-0.652-0.119
	c-0.183-0.047-0.395-0.077-0.608-0.127c-0.214-0.049-0.393-0.104-0.601-0.158c-0.211-0.034-0.386-0.09-0.59-0.147
	c-0.17-0.057-0.375-0.114-0.577-0.175c-0.16-0.055-0.359-0.119-0.524-0.181c-0.196-0.061-0.353-0.124-0.539-0.186
	c-0.154-0.085-0.31-0.149-0.49-0.216c-0.146-0.065-0.288-0.13-0.46-0.2c-0.145-0.085-0.277-0.15-0.405-0.222
	c-0.135-0.067-0.257-0.137-0.377-0.223c-0.698-0.415-1.366-0.836-1.965-1.259c-0.602-0.419-1.172-0.847-1.675-1.292
	c-0.508-0.428-0.988-0.857-1.438-1.304c-0.449-0.427-0.84-0.856-1.205-1.287c-0.36-0.445-0.698-0.872-1.017-1.297
	c-0.279-0.422-0.537-0.863-0.771-1.28c-0.236-0.415-0.45-0.81-0.609-1.217c-0.191-0.408-0.331-0.809-0.454-1.185
	c-0.12-0.396-0.222-0.765-0.299-1.122c-0.059-0.359-0.112-0.713-0.15-1.053c-0.028-0.322-0.047-0.656-0.024-0.958
	c0.009-0.303,0.028-0.594,0.077-0.851c0.047-0.282,0.095-0.525,0.172-0.759c0.085-0.231,0.147-0.434,0.247-0.618
	c0.102-0.202,0.211-0.354,0.326-0.503c0.116-0.134,0.237-0.251,0.363-0.349c0.018-0.011,0.032-0.022,0.052-0.031
	c0.055-0.031,0.072-0.039,0.09-0.049c0.026-0.012,0.081-0.04,0.099-0.05c0.023-0.009,0.039-0.018,0.096-0.044
	c0.024-0.01,0.045-0.018,0.071-0.027c0.056-0.009,0.075-0.015,0.101-0.039c0.062-0.007,0.086-0.018,0.111-0.022
	c0.025-0.005,0.085-0.012,0.108-0.035c0.025-0.004,0.088-0.013,0.115-0.018c0.03-0.004,0.093-0.01,0.119-0.013
	c0.028-0.006,0.093-0.026,0.122-0.029c0.032-0.004,0.093-0.007,0.121-0.009c0.035-0.001,0.099-0.004,0.132-0.009
	c0.068-0.001,0.097-0.004,0.13-0.004c0.068-0.001,0.097-0.003,0.131-0.003c0.069,0,0.102,0,0.173,0c0.174,0,0.389,0.006,0.615,0.019
	c0.223,0.03,0.454,0.048,0.686,0.088c0.238,0.024,0.479,0.065,0.727,0.101c0.249,0.05,0.5,0.107,0.758,0.164
	c0.253,0.062,0.549,0.125,0.814,0.212c0.264,0.07,0.566,0.145,0.836,0.237c0.306,0.078,0.579,0.159,0.853,0.263
	c0.309,0.102,0.586,0.191,0.9,0.303c0.277,0.11,0.589,0.223,0.87,0.34c0.312,0.114,0.593,0.236,0.914,0.359
	c0.274,0.124,0.586,0.247,0.868,0.377c0.309,0.147,0.588,0.275,0.896,0.409c0.273,0.153,0.548,0.287,0.853,0.425
	c0.271,0.157,0.571,0.295,0.839,0.454c0.261,0.139,0.521,0.299,0.808,0.464c0.259,0.143,0.512,0.308,0.756,0.468
	c0.561,0.334,1.069,0.685,1.562,1.034c0.479,0.346,0.95,0.69,1.396,1.017c0.447,0.342,0.839,0.685,1.211,1.004
	c0.374,0.338,0.73,0.656,1.066,0.989c0.342,0.313,0.659,0.627,0.927,0.951c0.268,0.309,0.517,0.613,0.746,0.915
	c0.237,0.302,0.457,0.597,0.656,0.891c0.166,0.291,0.351,0.58,0.487,0.845c0.137,0.284,0.258,0.563,0.362,0.817
	c0.11,0.252,0.163,0.521,0.246,0.766c0.081,0.245,0.11,0.48,0.128,0.711c0.021,0.232,0.026,0.459,0.024,0.66
	c-0.007,0.218-0.027,0.411-0.051,0.6C99.848,31.742,99.804,31.92,99.721,32.093z M78.294,28.173c0.49,0.423,0.95,0.859,1.334,1.324
	c0.38,0.466,0.726,0.94,1.021,1.427c0.262,0.487,0.482,1.003,0.618,1.532c0.14,0.509,0.225,1.063,0.225,1.613
	s-0.085,1.124-0.228,1.689c-0.144,0.588-0.382,1.178-0.712,1.802c-0.009,0.015-0.028,0.059-0.087,0.122
	c-0.028,0.061-0.102,0.132-0.146,0.235c-0.083,0.086-0.144,0.199-0.243,0.324c-0.104,0.122-0.219,0.272-0.34,0.41
	c-0.125,0.159-0.258,0.306-0.405,0.477c-0.181,0.171-0.339,0.348-0.541,0.526c-0.17,0.178-0.383,0.364-0.609,0.548
	c-0.228,0.184-0.464,0.37-0.713,0.574c-0.25,0.187-0.514,0.373-0.82,0.555c-0.276,0.183-0.599,0.364-0.93,0.538
	c-0.309,0.177-0.667,0.349-1.027,0.513c-0.363,0.15-0.735,0.309-1.141,0.442c-0.406,0.15-0.818,0.275-1.252,0.391
	c-0.43,0.111-0.894,0.202-1.371,0.291c-0.477,0.075-0.984,0.137-1.489,0.185c-0.522,0.031-1.06,0.062-1.612,0.061
	c-0.174,0-0.349,0-0.524-0.004c-0.176-0.004-0.353-0.027-0.531-0.035c-0.178-0.004-0.358-0.013-0.538-0.023
	c-0.183-0.03-0.365-0.042-0.567-0.054c-0.183-0.034-0.365-0.049-0.553-0.065c-0.189-0.036-0.395-0.053-0.585-0.095
	c-0.188-0.022-0.38-0.06-0.59-0.091c-0.19-0.042-0.385-0.087-0.599-0.117c-0.193-0.049-0.408-0.097-0.605-0.147
	c-0.214-0.054-0.413-0.089-0.635-0.144c-0.201-0.055-0.42-0.113-0.622-0.175c-0.224-0.058-0.442-0.124-0.65-0.189
	c-0.224-0.082-0.446-0.151-0.657-0.223c-0.226-0.071-0.455-0.157-0.687-0.231c-0.21-0.075-0.442-0.17-0.674-0.251
	c-0.231-0.097-0.464-0.18-0.703-0.286c-0.474-0.188-0.967-0.404-1.495-0.614c-0.53-0.229-1.079-0.466-1.659-0.716
	c-0.581-0.263-1.175-0.518-1.788-0.803c-0.608-0.266-1.248-0.554-1.899-0.856c-0.649-0.297-1.307-0.619-1.974-0.928
	c-0.682-0.308-1.355-0.642-2.05-0.963c-0.674-0.337-1.375-0.664-2.071-1.008c-0.683-0.345-1.383-0.694-2.08-1.025
	c-0.68-0.349-1.377-0.702-2.05-1.053c-0.689-0.354-1.361-0.708-2.021-1.062c-0.662-0.351-1.314-0.704-1.956-1.056
	c-0.641-0.332-1.257-0.682-1.856-1.027c-0.616-0.346-1.183-0.673-1.755-1.011C32.9,29.16,32.366,28.84,31.85,28.53
	c-0.498-0.327-0.975-0.636-1.428-0.933c-0.441-0.302-0.854-0.593-1.242-0.878c0.036-0.013,0.094-0.054,0.176-0.092
	c0.097-0.052,0.216-0.141,0.361-0.215c0.158-0.076,0.342-0.18,0.559-0.29c0.205-0.111,0.444-0.23,0.725-0.356
	c0.262-0.125,0.581-0.256,0.904-0.41c0.341-0.14,0.702-0.298,1.084-0.442c0.4-0.162,0.818-0.329,1.276-0.479
	c0.444-0.168,0.921-0.334,1.441-0.502c0.516-0.15,1.055-0.316,1.615-0.481c0.577-0.147,1.175-0.311,1.808-0.471
	c0.615-0.141,1.271-0.297,1.967-0.429c0.672-0.131,1.387-0.257,2.137-0.38c0.729-0.119,1.496-0.226,2.283-0.331
	c0.805-0.105,1.613-0.18,2.475-0.245c0.844-0.067,1.726-0.124,2.623-0.163c0.902-0.027,1.839-0.055,2.793-0.054
	c0.971,0,1.958,0.036,2.928,0.089c0.984,0.052,1.953,0.125,2.917,0.212c0.979,0.103,1.933,0.223,2.881,0.377
	c0.947,0.14,1.869,0.308,2.795,0.493c0.907,0.188,1.803,0.409,2.681,0.64c0.882,0.23,1.726,0.483,2.554,0.767
	c0.826,0.265,1.614,0.559,2.378,0.866c0.764,0.327,1.482,0.65,2.159,1.004c0.687,0.355,1.342,0.722,1.94,1.12
	C77.23,27.34,77.795,27.735,78.294,28.173z M33.148,64.217c1.179-1.156,2.355-2.258,3.51-3.281c1.173-1.025,2.318-2.006,3.455-2.906
	c1.135-0.898,2.26-1.739,3.363-2.52c1.087-0.797,2.159-1.522,3.207-2.188c1.028-0.672,2.035-1.299,2.998-1.853
	c0.98-0.58,1.892-1.102,2.771-1.57c0.88-0.474,1.709-0.893,2.46-1.264c0.77-0.373,1.487-0.712,2.137-1.006
	c0.653-0.294,1.242-0.545,1.761-0.764c0.519-0.205,0.953-0.382,1.311-0.533c0.179-0.067,0.356-0.135,0.53-0.199
	c0.181-0.063,0.353-0.126,0.527-0.185c0.178-0.058,0.35-0.119,0.508-0.172c0.173-0.056,0.343-0.111,0.515-0.162
	c0.171-0.054,0.342-0.088,0.494-0.137c0.17-0.049,0.341-0.095,0.506-0.126c0.169-0.047,0.322-0.09,0.484-0.117
	c0.165-0.042,0.314-0.064,0.477-0.107c0.164-0.039,0.312-0.057,0.477-0.077c0.159-0.039,0.305-0.055,0.465-0.091
	c0.143-0.016,0.307-0.049,0.464-0.061c0.143-0.013,0.303-0.025,0.442-0.052c0.153-0.012,0.288-0.021,0.423-0.03
	c0.15-0.027,0.287-0.033,0.417-0.036c0.15-0.006,0.282-0.01,0.411-0.013c0.131-0.001,0.279-0.003,0.407-0.003
	c0.578,0,1.12,0.021,1.625,0.07c0.526,0.054,1.033,0.121,1.511,0.222c0.474,0.082,0.922,0.196,1.371,0.317
	c0.431,0.124,0.847,0.281,1.254,0.427c0.405,0.161,0.774,0.334,1.137,0.514c0.361,0.178,0.711,0.367,1.031,0.576
	c0.338,0.19,0.658,0.391,0.936,0.604c0.315,0.199,0.583,0.419,0.833,0.622c0.258,0.217,0.498,0.438,0.73,0.642
	c0.229,0.219,0.448,0.413,0.656,0.631c0.175,0.193,0.371,0.388,0.523,0.57c0.181,0.202,0.322,0.38,0.449,0.535
	c0.133,0.171,0.245,0.331,0.355,0.467c0.103,0.151,0.162,0.274,0.25,0.388c0.081,0.091,0.128,0.191,0.152,0.253
	c0.065,0.064,0.083,0.117,0.091,0.132c0.731,1.133,1.307,2.249,1.759,3.324c0.447,1.074,0.73,2.128,0.924,3.143
	c0.153,1.013,0.188,1.999,0.15,2.949c-0.074,0.949-0.224,1.861-0.475,2.745c-0.249,0.885-0.602,1.733-1.037,2.554
	c-0.401,0.823-0.89,1.604-1.456,2.347c-0.566,0.757-1.176,1.476-1.808,2.167c-0.67,0.672-1.375,1.326-2.095,1.933
	c-0.719,0.627-1.459,1.213-2.22,1.755c-0.764,0.544-1.529,1.061-2.297,1.537c-0.745,0.474-1.506,0.926-2.232,1.315
	c-0.743,0.392-1.452,0.752-2.119,1.092c-0.664,0.343-1.302,0.616-1.882,0.907c-0.563,0.248-1.085,0.475-1.521,0.642
	c-0.456,0.196-0.824,0.339-1.115,0.448c-0.287,0.114-0.48,0.165-0.581,0.228c-1.54,0.716-3.044,1.408-4.529,2.033
	c-1.485,0.624-2.952,1.22-4.376,1.797c-1.428,0.569-2.821,1.086-4.187,1.568c-1.37,0.522-2.713,0.95-4.021,1.394
	c-1.306,0.437-2.571,0.824-3.814,1.187c-1.24,0.358-2.441,0.704-3.617,0.992c-1.175,0.322-2.309,0.592-3.399,0.876
	c-1.109,0.25-2.172,0.486-3.191,0.668c-1.019,0.217-2.016,0.417-2.961,0.568c-0.93,0.189-1.849,0.327-2.703,0.451
	c-0.873,0.125-1.699,0.238-2.477,0.34c-0.778,0.069-1.511,0.16-2.208,0.238c-0.7,0.049-1.349,0.125-1.95,0.156
	c-0.601,0.033-1.151,0.089-1.669,0.104c-0.499,0.015-0.967,0.03-1.382,0.036c-0.416,0.005-0.776,0.011-1.104,0.011
	c-0.06,0-0.116,0-0.155,0c-0.055,0-0.11,0-0.166-0.006c-0.053,0-0.106,0-0.158,0c-0.033,0-0.085,0-0.13,0
	c-0.049,0-0.081-0.005-0.126-0.005c-0.046,0-0.073,0-0.117,0c-0.046,0-0.068,0-0.107,0c-0.025,0-0.064,0-0.086,0
	c-0.036-0.003-0.059-0.003-0.094-0.003c-0.02,0-0.053-0.003-0.068-0.003c-0.017,0-0.05-0.004-0.062-0.004c-0.014,0-0.043,0-0.054,0
	c0.884-2.078,1.822-4.094,2.79-6.051c0.969-1.926,2.002-3.747,3.044-5.513c1.059-1.768,2.141-3.442,3.255-5.064
	c1.116-1.582,2.25-3.111,3.392-4.554c1.144-1.458,2.313-2.827,3.489-4.133C30.79,66.62,31.966,65.386,33.148,64.217z M80.688,75.328
	c0.143-1.027,0.351-1.978,0.579-2.864c0.227-0.886,0.476-1.71,0.743-2.453c0.296-0.758,0.585-1.455,0.918-2.074
	c0.336-0.638,0.645-1.196,1.044-1.721c0.357-0.522,0.729-0.985,1.109-1.405c0.381-0.413,0.801-0.778,1.194-1.098
	c0.428-0.332,0.826-0.604,1.266-0.864c0.404-0.242,0.844-0.441,1.245-0.616c0.437-0.175,0.847-0.31,1.275-0.427
	c0.438-0.118,0.837-0.212,1.231-0.279c0.421-0.062,0.807-0.111,1.18-0.133c0.407-0.034,0.779-0.043,1.129-0.041
	c0.039,0,0.12,0,0.157,0c0.078,0,0.123,0.001,0.196,0.001c0.042,0,0.119,0.002,0.159,0.004c0.073,0.002,0.116,0.002,0.152,0.006
	c0.075,0.002,0.113,0.002,0.19,0.004c0.033,0.021,0.11,0.024,0.148,0.025c0.072,0.001,0.11,0.003,0.179,0.006
	c0.039,0.003,0.074,0.005,0.146,0.006c0.036,0.002,0.11,0.01,0.14,0.011c0.074,0.001,0.104,0.005,0.14,0.011
	c0.071,0.001,0.104,0.004,0.17,0.022c0.035,0.004,0.062,0.006,0.13,0.008c0.033,0.005,0.062,0.007,0.131,0.011
	c0.033,0.002,0.098,0.006,0.128,0.01s0.096,0.005,0.122,0.008c0.032,0.005,0.089,0.024,0.115,0.028c1.049,0.092,2,0.271,2.873,0.507
	c0.906,0.241,1.738,0.56,2.484,0.897c0.748,0.356,1.449,0.77,2.111,1.231c0.63,0.464,1.215,0.956,1.769,1.486
	c0.517,0.539,0.998,1.116,1.438,1.71c0.413,0.598,0.822,1.214,1.177,1.857c0.309,0.646,0.626,1.301,0.882,1.963
	c0.256,0.664,0.484,1.348,0.692,2.015s0.356,1.349,0.487,2.009c0.131,0.659,0.237,1.296,0.333,1.946
	c0.095,0.622,0.14,1.229,0.17,1.814c0.067,0.587,0.083,1.154,0.098,1.661c0.006,0.502,0.006,0.98,0.002,1.427
	c0,0.439-0.009,0.817-0.022,1.156c-0.013,0.302-0.027,0.598-0.033,0.779c-0.048,0.217-0.06,0.35-0.065,0.43
	c-0.096,2.018-0.237,3.96-0.407,5.862c-0.211,1.899-0.454,3.759-0.767,5.542c-0.275,1.788-0.621,3.493-0.986,5.163
	c-0.371,1.699-0.793,3.296-1.209,4.846c-0.448,1.554-0.918,3.057-1.405,4.492c-0.484,1.433-0.983,2.818-1.527,4.139
	c-0.507,1.312-1.066,2.549-1.593,3.739c-0.555,1.197-1.12,2.348-1.648,3.417c-0.562,1.072-1.126,2.106-1.646,3.055
	c-0.559,0.95-1.073,1.823-1.577,2.652c-0.538,0.829-1.028,1.577-1.507,2.282c-0.475,0.707-0.938,1.369-1.337,1.916
	c-0.439,0.582-0.825,1.11-1.178,1.536c-0.349,0.457-0.676,0.836-0.935,1.161c-0.263,0.333-0.489,0.579-0.678,0.749
	c-0.154,0.208-0.27,0.33-0.308,0.403c-0.05-0.056-0.087-0.102-0.173-0.209c-0.048-0.108-0.155-0.242-0.276-0.444
	c-0.119-0.166-0.253-0.394-0.433-0.656c-0.147-0.299-0.31-0.589-0.516-0.992c-0.207-0.362-0.389-0.766-0.616-1.239
	c-0.23-0.477-0.465-1.019-0.71-1.57c-0.25-0.587-0.533-1.246-0.795-1.953c-0.26-0.707-0.522-1.462-0.83-2.286
	c-0.271-0.83-0.578-1.739-0.854-2.702c-0.314-0.964-0.591-1.967-0.906-3.099c-0.285-1.098-0.596-2.278-0.876-3.544
	c-0.315-1.241-0.593-2.566-0.906-3.981c-0.274-1.417-0.547-2.926-0.85-4.489c-0.271-1.569-0.568-3.228-0.832-4.993
	c-0.255-1.756-0.504-3.575-0.747-5.493c-0.245-1.923-0.477-3.941-0.703-6.06c-0.198-1.737-0.324-3.331-0.379-4.866
	c-0.096-1.53-0.118-2.962-0.113-4.299c0.01-1.379,0.041-2.617,0.138-3.805C80.412,77.481,80.538,76.358,80.688,75.328z"/>
</svg>
