<?xml version="1.0" encoding="utf-8"?>
<!DOCTYPE svg PUBLIC "-//W3C//DTD SVG 1.1//EN" "http://www.w3.org/Graphics/SVG/1.1/DTD/svg11.dtd">
<svg version="1.1" xmlns="http://www.w3.org/2000/svg" xmlns:xlink="http://www.w3.org/1999/xlink" x="0px" y="0px" width="390px"
	 height="280px" viewBox="0 0 390 280" enable-background="new 0 0 390 280" xml:space="preserve">
<g id="Ebene_1">
	<rect fill="#F5F5F5" width="390" height="280"/>
	<rect x="205" y="65" fill="#FFFFFF" width="150" height="150"/>
	<path fill="#D5D5D5" d="M35.5,65v150.066h150V65H35.5z"/>
	<g>
		<polygon fill="#BBBBBB" points="62.332,178.077 85.224,154.024 93.801,157.732 120.863,128.918 131.513,141.663 136.317,138.762
			162.332,178.077 		"/>
		<path fill="#BBBBBB" d="M88.766,115.74c5.53,0,10,4.475,10,10c0,5.521-4.47,9.998-10,9.998c-5.515,0-9.998-4.477-9.998-9.998
			C78.768,120.215,83.251,115.74,88.766,115.74z"/>
	</g>
	<g>
		<path fill="#666666" d="M228.212,90.102h-1.162v-4.703h-5.264v4.703h-1.162v-9.994h1.162v4.252h5.264v-4.252h1.162V90.102z"/>
		<path fill="#666666" d="M236.524,90.102h-5.571v-9.994h5.571v1.032h-4.409v3.22h4.143v1.025h-4.143v3.678h4.409V90.102z"/>
		<path fill="#666666" d="M245.021,90.102l-1.244-3.179h-4.006l-1.23,3.179h-1.176l3.951-10.035h0.978l3.931,10.035H245.021z
			 M243.415,85.877l-1.162-3.097c-0.15-0.392-0.306-0.873-0.465-1.442c-0.101,0.438-0.244,0.918-0.431,1.442l-1.176,3.097H243.415z"
			/>
		<path fill="#666666" d="M255.576,85.009c0,1.65-0.447,2.911-1.344,3.784c-0.895,0.873-2.184,1.309-3.865,1.309h-2.769v-9.994
			h3.062c1.554,0,2.762,0.431,3.623,1.292S255.576,83.464,255.576,85.009z M254.346,85.05c0-1.303-0.327-2.286-0.98-2.946
			c-0.654-0.661-1.626-0.991-2.916-0.991h-1.688v7.984h1.415c1.386,0,2.427-0.341,3.124-1.022S254.346,86.385,254.346,85.05z"/>
		<path fill="#666666" d="M257.805,90.102v-9.994h1.162v9.994H257.805z"/>
		<path fill="#666666" d="M269.515,90.102h-1.326l-5.462-8.388h-0.055c0.073,0.984,0.109,1.887,0.109,2.707v5.681h-1.073v-9.994
			h1.312l5.448,8.354h0.055c-0.009-0.123-0.029-0.519-0.062-1.186s-0.043-1.145-0.034-1.432v-5.735h1.087V90.102z"/>
		<path fill="#666666" d="M276.658,84.865h3.397v4.86c-0.528,0.168-1.066,0.296-1.613,0.383s-1.181,0.13-1.9,0.13
			c-1.513,0-2.691-0.45-3.534-1.35s-1.265-2.161-1.265-3.784c0-1.039,0.208-1.949,0.626-2.731c0.416-0.782,1.017-1.378,1.801-1.791
			s1.702-0.619,2.755-0.619c1.066,0,2.06,0.196,2.98,0.588l-0.451,1.025c-0.902-0.383-1.771-0.574-2.604-0.574
			c-1.217,0-2.167,0.362-2.851,1.087s-1.025,1.729-1.025,3.015c0,1.349,0.329,2.372,0.987,3.069
			c0.659,0.697,1.626,1.046,2.902,1.046c0.692,0,1.369-0.08,2.03-0.239v-3.076h-2.235V84.865z"/>
	</g>
	<g>
		<path fill="#FFFFFF" d="M57.962,90.206H56.8v-4.703h-5.264v4.703h-1.162v-9.994h1.162v4.252H56.8v-4.252h1.162V90.206z"/>
		<path fill="#FFFFFF" d="M66.274,90.206h-5.571v-9.994h5.571v1.032h-4.409v3.22h4.143v1.025h-4.143v3.678h4.409V90.206z"/>
		<path fill="#FFFFFF" d="M74.771,90.206l-1.244-3.179h-4.006l-1.23,3.179h-1.176l3.951-10.035h0.978l3.931,10.035H74.771z
			 M73.165,85.981l-1.162-3.097c-0.15-0.392-0.306-0.873-0.465-1.442c-0.101,0.438-0.244,0.918-0.431,1.442l-1.176,3.097H73.165z"/>
		<path fill="#FFFFFF" d="M85.326,85.113c0,1.65-0.447,2.911-1.344,3.784c-0.895,0.873-2.184,1.309-3.865,1.309h-2.769v-9.994h3.062
			c1.554,0,2.762,0.431,3.623,1.292S85.326,83.568,85.326,85.113z M84.096,85.154c0-1.303-0.327-2.286-0.98-2.946
			c-0.654-0.661-1.626-0.991-2.916-0.991h-1.688v7.984h1.415c1.386,0,2.427-0.341,3.124-1.022S84.096,86.49,84.096,85.154z"/>
		<path fill="#FFFFFF" d="M87.555,90.206v-9.994h1.162v9.994H87.555z"/>
		<path fill="#FFFFFF" d="M99.265,90.206h-1.326l-5.462-8.388h-0.055c0.073,0.984,0.109,1.887,0.109,2.707v5.681h-1.073v-9.994
			h1.312l5.448,8.354h0.055c-0.009-0.123-0.029-0.519-0.062-1.186s-0.043-1.145-0.034-1.432v-5.735h1.087V90.206z"/>
		<path fill="#FFFFFF" d="M106.408,84.97h3.397v4.86c-0.528,0.168-1.066,0.296-1.613,0.383s-1.181,0.13-1.9,0.13
			c-1.513,0-2.691-0.45-3.534-1.35s-1.265-2.161-1.265-3.784c0-1.039,0.208-1.949,0.626-2.731c0.416-0.782,1.017-1.378,1.801-1.791
			s1.702-0.619,2.755-0.619c1.066,0,2.06,0.196,2.98,0.588l-0.451,1.025c-0.902-0.383-1.771-0.574-2.604-0.574
			c-1.217,0-2.167,0.362-2.851,1.087s-1.025,1.729-1.025,3.015c0,1.349,0.329,2.372,0.987,3.069
			c0.659,0.697,1.626,1.046,2.902,1.046c0.692,0,1.369-0.08,2.03-0.239v-3.076h-2.235V84.97z"/>
	</g>
	<rect x="220" y="105" fill="#EEEEEE" width="100" height="4"/>
	<rect x="220" y="117" fill="#EEEEEE" width="88" height="4"/>
</g>
<g id="right">
	<g>
		<path fill="#999999" d="M341.192,84.397c0.051-0.122,0.051-0.26,0-0.382c-0.025-0.062-0.061-0.117-0.107-0.163l-3-3
			c-0.195-0.195-0.511-0.195-0.706,0s-0.195,0.511,0,0.707l2.146,2.146h-5.792c-0.277,0-0.5,0.223-0.5,0.5
			c0,0.276,0.223,0.5,0.5,0.5h5.792l-2.146,2.146c-0.195,0.195-0.195,0.512,0,0.707c0.096,0.098,0.225,0.146,0.353,0.146
			c0.129,0,0.256-0.049,0.354-0.146l3-3C341.132,84.514,341.167,84.458,341.192,84.397z"/>
		<g>
			<path fill="#999999" d="M337.231,90.706c-3.584,0-6.5-2.916-6.5-6.5s2.916-6.5,6.5-6.5s6.5,2.916,6.5,6.5
				S340.815,90.706,337.231,90.706z M337.231,78.706c-3.032,0-5.5,2.467-5.5,5.5s2.468,5.5,5.5,5.5s5.5-2.467,5.5-5.5
				S340.264,78.706,337.231,78.706z"/>
		</g>
	</g>
	<g>
		<path fill="#FFFFFF" d="M171.823,84.397c0.051-0.122,0.051-0.26,0-0.382c-0.025-0.062-0.061-0.117-0.107-0.163l-3-3
			c-0.195-0.195-0.511-0.195-0.706,0s-0.195,0.511,0,0.707l2.146,2.146h-5.792c-0.277,0-0.5,0.223-0.5,0.5
			c0,0.276,0.223,0.5,0.5,0.5h5.792l-2.146,2.146c-0.195,0.195-0.195,0.512,0,0.707c0.096,0.098,0.225,0.146,0.353,0.146
			c0.129,0,0.256-0.049,0.354-0.146l3-3C171.762,84.514,171.797,84.458,171.823,84.397z"/>
		<g>
			<path fill="#FFFFFF" d="M167.862,90.706c-3.584,0-6.5-2.916-6.5-6.5s2.916-6.5,6.5-6.5s6.5,2.916,6.5,6.5
				S171.446,90.706,167.862,90.706z M167.862,78.706c-3.032,0-5.5,2.467-5.5,5.5s2.468,5.5,5.5,5.5s5.5-2.467,5.5-5.5
				S170.894,78.706,167.862,78.706z"/>
		</g>
	</g>
</g>
</svg>
